<?xml version="1.0" encoding="utf-8"?>
<!-- Generator: Adobe Illustrator 26.5.1, SVG Export Plug-In . SVG Version: 6.00 Build 0)  -->
<svg version="1.1" id="Livello_1" xmlns="http://www.w3.org/2000/svg" xmlns:xlink="http://www.w3.org/1999/xlink" x="0px" y="0px"
	 viewBox="0 0 458.1 459.83" style="enable-background:new 0 0 458.1 459.83;" xml:space="preserve">
<style type="text/css">
	.st0{fill:#FFFFFF;}
</style>
<g>
	<path class="st0" d="M229.05,119.91c-0.01,0-0.02,0-0.04,0c0,0-0.01,0-0.01,0c-0.01,0-0.02,0-0.03,0c0,0-0.01,0-0.01,0
		c-0.01,0-0.02,0-0.04,0c0,0-0.01,0-0.01,0c-0.01,0-0.02,0-0.03,0c0,0-0.01,0-0.01,0c-0.01,0-0.02,0-0.04,0c0,0,0,0,0,0
		c-0.01,0-0.02,0-0.04,0c0,0-0.01,0-0.01,0c-0.01,0-0.02,0-0.03,0c0,0-0.01,0-0.01,0c-0.01,0-0.02,0-0.04,0c0,0-0.01,0-0.01,0
		c-0.01,0-0.02,0-0.03,0c0,0-0.01,0-0.01,0c-0.01,0-0.02,0-0.04,0c0,0-0.01,0-0.01,0c-0.01,0-0.03,0-0.03,0c0,0-0.01,0-0.01,0
		c-0.01,0-0.02,0-0.04,0c0,0,0,0,0,0c-0.01,0-0.02,0-0.04,0c0,0-0.01,0-0.01,0c-0.01,0-0.02,0-0.03,0c0,0-0.01,0-0.01,0
		c-0.01,0-0.02,0-0.04,0c0,0,0,0-0.01,0c-0.01,0-0.02,0-0.03,0c0,0-0.01,0-0.01,0c-0.03,0-0.05,0-0.08,0c0,0-0.01,0-0.01,0
		c-0.01,0-0.02,0-0.03,0c0,0-0.01,0-0.01,0c-0.01,0-0.02,0-0.04,0c0,0-0.01,0-0.01,0c-0.01,0-0.02,0-0.03,0c0,0-0.01,0-0.01,0
		c-0.01,0-0.03,0-0.04,0c0,0,0,0,0,0c-0.01,0-0.02,0-0.04,0c0,0-0.01,0-0.01,0c-0.01,0-0.02,0-0.03,0c0,0,0,0-0.01,0
		c-0.01,0-0.02,0-0.04,0c0,0-0.01,0-0.01,0c-0.01,0-0.02,0-0.03,0c0,0-0.01,0-0.01,0c-0.01,0-0.02,0-0.04,0c0,0,0,0-0.01,0
		c-0.01,0-0.02,0-0.03,0c0,0-0.01,0-0.01,0c-0.01,0-0.02,0-0.03,0c0,0,0,0-0.01,0c-0.01,0-0.02,0-0.04,0c0,0-0.01,0-0.01,0
		c-0.01,0-0.02,0-0.03,0c0,0-0.01,0-0.01,0c-0.01,0-0.02,0-0.04,0c0,0-0.01,0-0.01,0c-0.01,0-0.02,0-0.03,0c0,0-0.01,0-0.01,0
		c-0.01,0-0.02,0-0.04,0c0,0,0,0,0,0c-0.01,0-0.02,0-0.04,0c0,0-0.01,0-0.01,0c-0.01,0-0.02,0-0.03,0c0,0-0.01,0-0.01,0
		c-0.01,0-0.02,0-0.04,0c0,0-0.01,0-0.01,0c-0.01,0-0.02,0-0.03,0c0,0-0.01,0-0.01,0c-0.01,0-0.02,0-0.04,0c0,0,0,0-0.01,0
		c-0.01,0-0.02,0-0.03,0c0,0-0.01,0-0.01,0c-0.01,0-0.02,0-0.03,0c0,0,0,0-0.01,0c-0.01,0-0.02,0-0.04,0c0,0-0.01,0-0.01,0
		c-0.01,0-0.02,0-0.03,0c0,0-0.01,0-0.01,0c-0.01,0-0.02,0-0.04,0c0,0-0.01,0-0.01,0c-0.01,0-0.02,0-0.03,0c0,0-0.01,0-0.01,0
		c-0.01,0-0.02,0-0.03,0c0,0-0.01,0-0.01,0c-0.01,0-0.03,0-0.04,0c0,0-0.01,0-0.01,0c-0.01,0-0.02,0-0.02,0c-0.01,0-0.01,0-0.02,0
		c-0.01,0-0.02,0-0.04,0c-0.01,0-0.01,0-0.01,0c-0.01,0-0.02,0-0.02,0c-0.01,0-0.01,0-0.02,0c-0.01,0-0.02,0-0.04,0
		c0,0-0.01,0-0.01,0c-0.01,0-0.02,0-0.03,0c-0.01,0-0.01,0-0.02,0c-0.01,0-0.02,0-0.02,0c-0.01,0-0.01,0-0.02,0
		c-0.01,0-0.02,0-0.03,0c-0.01,0-0.01,0-0.02,0c-0.01,0-0.02,0-0.02,0c-0.01,0-0.01,0-0.02,0c-0.01,0-0.02,0-0.03,0
		c-0.01,0-0.01,0-0.02,0c-0.01,0-0.02,0-0.03,0c-0.01,0-0.01,0-0.02,0c-0.01,0-0.02,0-0.02,0c-0.01,0-0.01,0-0.02,0
		c-0.01,0-0.02,0-0.03,0c-0.01,0-0.01,0-0.02,0c-0.01,0-0.02,0-0.02,0c-0.01,0-0.01,0-0.02,0c-0.01,0-0.02,0-0.03,0
		c-0.01,0-0.01,0-0.02,0c-0.01,0-0.01,0-0.02,0c-0.01,0-0.01,0-0.02,0c-0.01,0-0.02,0-0.02,0c-0.01,0-0.02,0-0.03,0
		c-0.01,0-0.01,0-0.02,0c-0.01,0-0.01,0-0.02,0c-0.01,0-0.01,0-0.02,0c-0.01,0-0.01,0-0.02,0c-0.01,0-0.02,0-0.03,0
		c-0.01,0-0.01,0-0.02,0c-0.01,0-0.01,0-0.02,0c-0.01,0-0.01,0-0.02,0c-0.01,0-0.02,0-0.03,0c-0.01,0-0.01,0-0.02,0
		c-0.01,0-0.02,0-0.02,0c-0.01,0-0.01,0-0.02,0c-0.01,0-0.01,0-0.02,0c-0.01,0-0.02,0-0.02,0c-0.01,0-0.02,0-0.03,0
		c-0.01,0-0.01,0-0.02,0c-0.01,0-0.01,0-0.02,0c-0.01,0-0.01,0-0.02,0c-0.01,0-0.02,0-0.02,0c-0.01,0-0.02,0-0.03,0
		c-0.01,0-0.01,0-0.02,0c-0.01,0-0.01,0-0.02,0c0,0-0.01,0-0.02,0c-0.01,0-0.02,0-0.04,0c0,0-0.01,0-0.02,0c-0.01,0-0.01,0-0.02,0
		c-0.01,0-0.01,0-0.02,0c-0.01,0-0.01,0-0.02,0c0,0-0.01,0-0.02,0c-0.01,0-0.03,0-0.04,0c0,0-0.01,0-0.01,0c-0.01,0-0.01,0-0.02,0
		c0,0-0.01,0-0.01,0c-0.01,0-0.03,0-0.04,0c0,0-0.01,0-0.01,0c-0.01,0-0.02,0-0.02,0c0,0-0.01,0-0.01,0c-0.03,0-0.05,0-0.08,0
		c-0.01,0-0.01,0-0.01,0c-0.01,0-0.02,0-0.02,0c0,0-0.01,0-0.01,0c-0.02,0-0.03,0-0.05,0c0,0-0.01,0-0.01,0c-0.01,0-0.02,0-0.03,0
		c0,0-0.01,0-0.01,0c-0.02,0-0.04,0-0.05,0l0,0c-0.01,0-0.02,0-0.03,0l-0.01,0c-0.01,0-0.02,0-0.03,0l0,0c-0.02,0-0.04,0-0.06,0
		c0,0-0.01,0-0.01,0c-0.01,0-0.02,0-0.03,0c0,0,0,0,0,0c-0.03,0-0.06,0-0.09,0l-0.01,0c-0.03,0-0.06,0-0.09,0l0,0
		c-0.04,0-0.08,0-0.12,0l0,0c-0.03,0-0.06,0-0.09,0h0c-1.19,0.05-2.37,0.11-3.54,0.2l0.14,1.99c2.6-0.19,5.24-0.28,7.85-0.28V119.91
		L229.05,119.91L229.05,119.91z M208.17,121.89c-2.1,0.4-4.17,0.87-6.23,1.39l0,0c-0.04,0.01-0.08,0.02-0.11,0.03c0,0-0.01,0-0.01,0
		c-0.01,0-0.02,0-0.02,0.01c0,0-0.01,0-0.01,0c-0.01,0-0.03,0.01-0.04,0.01c0,0-0.01,0-0.01,0c-0.01,0-0.01,0-0.02,0.01
		c-0.01,0-0.01,0-0.02,0c-0.01,0-0.01,0-0.02,0c-0.01,0-0.02,0-0.02,0.01c-0.01,0-0.01,0-0.02,0.01c-0.01,0-0.01,0-0.02,0.01
		c-0.01,0-0.01,0-0.02,0c-0.01,0-0.02,0-0.02,0.01c0,0-0.01,0-0.01,0c-0.01,0-0.02,0.01-0.03,0.01c0,0-0.01,0-0.01,0
		c-0.01,0-0.02,0-0.03,0.01c0,0-0.01,0-0.01,0c-0.03,0.01-0.05,0.01-0.08,0.02c0,0,0,0,0,0c-0.34,0.09-0.68,0.18-1.01,0.27
		l0.52,1.93c2.52-0.68,5.09-1.27,7.65-1.76L208.17,121.89L208.17,121.89z M188.05,127.81c-0.01,0-0.01,0.01-0.02,0.01
		c-0.01,0-0.02,0.01-0.03,0.01c-0.01,0-0.02,0.01-0.03,0.01c-0.01,0-0.02,0.01-0.02,0.01c-0.01,0-0.03,0.01-0.04,0.02
		c-0.01,0-0.02,0.01-0.03,0.01c-0.01,0-0.02,0.01-0.03,0.01c-0.01,0-0.02,0.01-0.02,0.01c-0.01,0-0.03,0.01-0.04,0.02
		c-0.01,0-0.02,0.01-0.03,0.01c-0.01,0-0.01,0.01-0.02,0.01c-0.01,0-0.02,0.01-0.03,0.01c-0.01,0-0.02,0.01-0.03,0.01
		c-0.01,0-0.02,0.01-0.03,0.01c-0.01,0-0.01,0.01-0.02,0.01c-0.01,0-0.02,0.01-0.03,0.01c-0.01,0-0.02,0.01-0.03,0.01
		c-0.01,0-0.02,0.01-0.03,0.01c-0.01,0-0.01,0.01-0.02,0.01c-0.01,0-0.02,0.01-0.03,0.01c-0.01,0-0.01,0.01-0.02,0.01
		c-0.01,0.01-0.03,0.01-0.04,0.02c-0.01,0-0.01,0.01-0.02,0.01c-0.01,0-0.02,0.01-0.03,0.01c-0.01,0-0.02,0.01-0.02,0.01
		c-0.01,0.01-0.03,0.01-0.04,0.02c-0.01,0-0.01,0.01-0.02,0.01c-0.01,0-0.02,0.01-0.03,0.01c-0.01,0-0.02,0.01-0.02,0.01
		c-0.01,0.01-0.03,0.01-0.04,0.02c-0.01,0-0.01,0.01-0.02,0.01c-0.01,0-0.02,0.01-0.03,0.01c-0.01,0-0.02,0.01-0.02,0.01
		c-0.01,0.01-0.03,0.01-0.04,0.02c-0.01,0-0.01,0.01-0.02,0.01c-0.01,0-0.02,0.01-0.03,0.01c-0.01,0-0.01,0.01-0.02,0.01
		c-0.01,0.01-0.03,0.01-0.04,0.02c-0.01,0-0.01,0-0.02,0.01c-0.01,0-0.02,0.01-0.03,0.01c-0.01,0-0.01,0.01-0.02,0.01
		c-0.02,0.01-0.03,0.01-0.05,0.02c0,0-0.02,0.01-0.02,0.01c-0.01,0-0.02,0.01-0.03,0.01c-0.01,0-0.01,0.01-0.02,0.01
		c-0.01,0.01-0.03,0.01-0.04,0.02c-0.01,0-0.01,0.01-0.02,0.01c-0.01,0-0.02,0.01-0.03,0.01c-0.01,0-0.01,0.01-0.02,0.01
		c-0.01,0.01-0.03,0.01-0.04,0.02c-0.01,0-0.01,0.01-0.02,0.01c-0.01,0-0.02,0.01-0.03,0.01c-0.01,0-0.01,0-0.02,0.01
		c-0.02,0.01-0.03,0.01-0.05,0.02c-0.01,0-0.01,0-0.02,0.01c-0.01,0-0.02,0.01-0.03,0.01c-0.01,0-0.01,0.01-0.02,0.01
		c-0.02,0.01-0.03,0.01-0.05,0.02c-0.01,0-0.01,0-0.02,0.01c-0.01,0-0.02,0.01-0.03,0.01c-0.01,0-0.01,0-0.02,0.01
		c-0.02,0.01-0.03,0.01-0.05,0.02c-0.01,0-0.01,0-0.02,0.01c-0.01,0.01-0.02,0.01-0.04,0.02c-0.01,0-0.01,0-0.02,0.01
		c-0.02,0.01-0.03,0.01-0.05,0.02c-0.01,0-0.01,0-0.02,0.01c-0.01,0-0.02,0.01-0.03,0.01c-0.01,0-0.01,0-0.02,0.01
		c-0.02,0.01-0.03,0.01-0.05,0.02c-0.01,0-0.01,0-0.02,0.01c-0.01,0.01-0.02,0.01-0.04,0.02c-0.01,0-0.01,0-0.02,0.01
		c-0.02,0.01-0.03,0.01-0.05,0.02c-0.01,0-0.01,0-0.01,0.01c-0.01,0.01-0.03,0.01-0.04,0.02c0,0-0.01,0.01-0.02,0.01
		c-0.02,0.01-0.03,0.01-0.05,0.02c-0.01,0-0.01,0-0.02,0.01c-0.01,0.01-0.02,0.01-0.04,0.02c0,0-0.01,0.01-0.02,0.01
		c-0.02,0.01-0.03,0.01-0.05,0.02c-0.01,0-0.01,0-0.01,0.01c-0.01,0.01-0.03,0.01-0.04,0.02c0,0-0.01,0-0.01,0.01
		c-0.02,0.01-0.03,0.01-0.05,0.02c-0.01,0-0.01,0-0.01,0.01c-0.01,0.01-0.03,0.01-0.04,0.02c0,0-0.01,0.01-0.01,0.01
		c-0.02,0.01-0.03,0.01-0.05,0.02c-0.01,0,0,0-0.01,0c-0.01,0.01-0.03,0.01-0.04,0.02c0,0-0.01,0-0.01,0.01
		c-0.02,0.01-0.03,0.01-0.05,0.02c0,0-0.01,0-0.01,0c-0.01,0.01-0.03,0.01-0.04,0.02c0,0-0.01,0-0.01,0.01
		c-0.02,0.01-0.03,0.01-0.05,0.02c0,0-0.01,0-0.01,0c-0.01,0.01-0.03,0.01-0.04,0.02c0,0-0.01,0-0.01,0.01
		c-0.02,0.01-0.03,0.01-0.05,0.02c0,0,0,0-0.01,0c-0.01,0.01-0.03,0.01-0.04,0.02c0,0-0.01,0-0.01,0.01
		c-0.02,0.01-0.03,0.01-0.05,0.02c0,0,0,0,0,0c-0.02,0.01-0.03,0.01-0.05,0.02c0,0-0.01,0-0.01,0c-0.02,0.01-0.03,0.01-0.05,0.02
		c0,0,0,0-0.01,0c-0.02,0.01-0.03,0.01-0.05,0.02c0,0-0.01,0-0.01,0.01c-0.02,0.01-0.03,0.01-0.05,0.02c0,0,0,0-0.01,0
		c-0.02,0.01-0.03,0.01-0.05,0.02c0,0-0.01,0-0.01,0c-0.02,0.01-0.03,0.02-0.05,0.02c0,0,0,0-0.01,0c-0.02,0.01-0.03,0.01-0.05,0.02
		c0,0-0.01,0-0.01,0.01c-0.02,0.01-0.03,0.02-0.05,0.02c0,0,0,0,0,0c-0.02,0.01-0.03,0.01-0.05,0.02c0,0-0.01,0-0.01,0
		c-0.02,0.01-0.03,0.02-0.05,0.02c0,0,0,0,0,0c-0.02,0.01-0.03,0.01-0.05,0.02c0,0-0.01,0-0.01,0.01c-0.02,0.01-0.03,0.02-0.05,0.02
		c0,0,0,0,0,0c-0.02,0.01-0.03,0.01-0.05,0.02c0,0-0.01,0-0.01,0c-0.02,0.01-0.03,0.02-0.05,0.02c0,0,0,0,0,0
		c-0.02,0.01-0.03,0.01-0.05,0.02c0,0-0.01,0-0.01,0.01c-0.02,0.01-0.03,0.02-0.05,0.02l0,0c-0.02,0.01-0.03,0.02-0.05,0.02
		c0,0-0.01,0-0.01,0c-0.03,0.02-0.07,0.03-0.1,0.05c0,0-0.01,0-0.01,0c-0.03,0.02-0.07,0.03-0.1,0.05c0,0-0.01,0-0.01,0
		c-0.03,0.02-0.07,0.03-0.1,0.05c0,0-0.01,0-0.01,0c-0.03,0.02-0.07,0.03-0.1,0.05c0,0-0.01,0-0.01,0c-0.03,0.02-0.07,0.03-0.1,0.05
		c-0.01,0,0,0-0.01,0.01c-0.03,0.02-0.07,0.03-0.1,0.05c-0.01,0,0,0-0.01,0c-0.03,0.02-0.07,0.03-0.1,0.05c-0.01,0,0,0-0.01,0
		c-0.03,0.02-0.07,0.03-0.1,0.05c-0.01,0-0.01,0-0.01,0.01c-0.02,0.01-0.03,0.02-0.05,0.02l0,0c-0.02,0.01-0.03,0.02-0.05,0.02
		c-0.01,0-0.01,0-0.01,0.01c-0.02,0.01-0.03,0.01-0.05,0.02l0,0c-0.02,0.01-0.03,0.02-0.05,0.02c-0.01,0-0.01,0-0.01,0.01
		c-0.02,0.01-0.03,0.01-0.05,0.02l0,0c-0.02,0.01-0.03,0.02-0.05,0.02c-0.01,0-0.01,0-0.01,0.01c-0.01,0.01-0.03,0.01-0.04,0.02
		c0,0,0,0-0.01,0c-0.02,0.01-0.03,0.01-0.05,0.02c-0.01,0-0.01,0-0.02,0.01c-0.01,0.01-0.03,0.01-0.04,0.02c0,0,0,0-0.01,0
		c-0.02,0.01-0.03,0.01-0.05,0.02c-0.01,0-0.01,0-0.02,0.01c-0.01,0.01-0.03,0.01-0.04,0.02c0,0-0.01,0-0.01,0
		c-0.02,0.01-0.03,0.01-0.05,0.02c-0.01,0-0.01,0-0.02,0.01c-0.01,0.01-0.03,0.01-0.04,0.02c0,0-0.01,0-0.01,0.01
		c-0.02,0.01-0.03,0.01-0.05,0.02c-0.01,0-0.01,0.01-0.02,0.01c-0.01,0.01-0.02,0.01-0.04,0.02c0,0-0.01,0-0.01,0.01
		c-0.02,0.01-0.03,0.01-0.05,0.02c-0.01,0-0.01,0.01-0.02,0.01c-0.01,0.01-0.02,0.01-0.03,0.02c-0.01,0-0.01,0.01-0.02,0.01
		c-0.01,0.01-0.03,0.01-0.04,0.02c-0.01,0-0.01,0.01-0.02,0.01c-0.01,0-0.02,0.01-0.03,0.01c-0.01,0-0.01,0.01-0.02,0.01
		c-0.01,0.01-0.03,0.01-0.04,0.02c-0.01,0-0.01,0.01-0.02,0.01c-0.01,0-0.02,0.01-0.03,0.01c-0.01,0-0.02,0.01-0.02,0.01
		c-0.01,0.01-0.02,0.01-0.04,0.02c-0.01,0-0.01,0.01-0.02,0.01c-0.01,0-0.02,0.01-0.03,0.01c-0.01,0-0.02,0.01-0.03,0.01
		c-0.01,0.01-0.02,0.01-0.04,0.02c-0.01,0-0.02,0.01-0.02,0.01c-0.01,0-0.02,0.01-0.02,0.01c-0.01,0.01-0.02,0.01-0.04,0.02
		c-0.01,0-0.02,0.01-0.03,0.01c-0.01,0-0.02,0.01-0.03,0.01c-0.01,0-0.01,0.01-0.02,0.01c-0.02,0.01-0.03,0.01-0.04,0.02
		c-0.01,0-0.01,0.01-0.02,0.01c-0.01,0-0.02,0.01-0.03,0.01c-0.01,0-0.01,0.01-0.02,0.01c-0.02,0.01-0.04,0.02-0.05,0.03
		c0,0-0.01,0-0.01,0.01c-0.01,0-0.02,0.01-0.03,0.01c-0.01,0-0.01,0.01-0.02,0.01c-0.02,0.01-0.04,0.02-0.06,0.03c0,0,0,0-0.01,0
		c-0.01,0-0.02,0.01-0.03,0.02c0,0-0.01,0-0.01,0.01c-0.03,0.02-0.07,0.03-0.1,0.05c0,0,0,0-0.01,0c-0.04,0.02-0.07,0.03-0.11,0.05
		c0,0,0,0,0,0c-0.1,0.05-0.21,0.1-0.31,0.15l0.88,1.8c2.34-1.15,4.76-2.22,7.17-3.19L188.05,127.81L188.05,127.81z M169.44,137.45
		c-0.36,0.23-0.71,0.46-1.07,0.7l0,0c-0.09,0.06-0.18,0.12-0.27,0.18c0,0,0,0,0,0c-0.03,0.02-0.07,0.04-0.1,0.07c0,0,0,0,0,0
		c-0.03,0.02-0.06,0.04-0.1,0.07c0,0,0,0-0.01,0c-0.03,0.02-0.06,0.04-0.1,0.07c0,0,0,0-0.01,0c-0.03,0.02-0.06,0.04-0.09,0.06
		c0,0-0.01,0-0.01,0.01c-0.01,0.01-0.02,0.01-0.03,0.02c0,0,0,0,0,0c-0.02,0.01-0.04,0.02-0.06,0.04c0,0-0.01,0.01-0.01,0.01
		c-0.01,0.01-0.02,0.01-0.03,0.02c0,0-0.01,0.01-0.01,0.01c-0.02,0.01-0.03,0.02-0.05,0.03c-0.01,0-0.01,0.01-0.02,0.01
		c-0.01,0.01-0.02,0.01-0.03,0.02c0,0-0.01,0-0.01,0.01c-0.02,0.01-0.03,0.02-0.05,0.03c-0.01,0-0.01,0.01-0.02,0.01
		c-0.01,0.01-0.02,0.01-0.03,0.02c0,0-0.01,0-0.01,0.01c-0.02,0.01-0.03,0.02-0.05,0.03c-0.01,0-0.01,0.01-0.02,0.01
		c-0.01,0.01-0.02,0.01-0.03,0.02c0,0-0.01,0-0.01,0.01c-0.02,0.01-0.03,0.02-0.05,0.04c-0.01,0-0.01,0.01-0.02,0.01
		c-0.01,0.01-0.02,0.01-0.03,0.02c-0.01,0.01-0.02,0.01-0.03,0.02c-0.01,0.01-0.02,0.01-0.03,0.02c-0.01,0-0.01,0.01-0.02,0.01
		c-0.01,0.01-0.02,0.01-0.02,0.02c-0.01,0.01-0.02,0.02-0.04,0.02c-0.01,0.01-0.02,0.01-0.02,0.02c-0.01,0-0.01,0.01-0.02,0.01
		c-0.01,0.01-0.02,0.01-0.03,0.02c-0.01,0.01-0.02,0.02-0.03,0.02c-0.01,0.01-0.01,0.01-0.02,0.02c-0.01,0.01-0.01,0.01-0.02,0.02
		c-0.01,0.01-0.01,0.01-0.02,0.02c-0.01,0.01-0.02,0.02-0.04,0.02c-0.01,0.01-0.01,0.01-0.02,0.01c-0.01,0.01-0.02,0.01-0.02,0.02
		c-0.01,0-0.01,0.01-0.02,0.01c-0.01,0.01-0.03,0.02-0.04,0.03c-0.01,0.01-0.01,0.01-0.02,0.01c-0.01,0.01-0.02,0.01-0.02,0.02
		c-0.01,0-0.02,0.01-0.02,0.01c-0.01,0.01-0.02,0.02-0.04,0.03c-0.01,0-0.01,0.01-0.02,0.01c-0.01,0.01-0.02,0.01-0.03,0.02
		c-0.01,0-0.01,0.01-0.02,0.01c-0.01,0.01-0.03,0.02-0.04,0.03c-0.01,0-0.01,0.01-0.02,0.01c-0.01,0.01-0.02,0.01-0.03,0.02
		c-0.01,0-0.01,0.01-0.01,0.01c-0.01,0.01-0.03,0.02-0.04,0.03c-0.01,0-0.01,0.01-0.02,0.01c-0.01,0.01-0.02,0.01-0.03,0.02
		c-0.01,0-0.01,0.01-0.01,0.01c-0.01,0.01-0.03,0.02-0.04,0.03c-0.01,0-0.01,0.01-0.02,0.01c-0.01,0.01-0.02,0.02-0.03,0.02
		c0,0-0.01,0.01-0.01,0.01c-0.01,0.01-0.03,0.02-0.04,0.03c-0.01,0-0.01,0.01-0.02,0.01c-0.01,0.01-0.02,0.02-0.03,0.02
		c0,0-0.01,0.01-0.01,0.01c-0.01,0.01-0.03,0.02-0.04,0.03c-0.01,0-0.01,0.01-0.01,0.01c-0.01,0.01-0.03,0.02-0.04,0.03
		c0,0-0.01,0-0.01,0.01c-0.01,0.01-0.03,0.02-0.04,0.03c-0.01,0-0.01,0.01-0.01,0.01c-0.01,0.01-0.03,0.02-0.04,0.03l0,0
		c-0.01,0.01-0.03,0.02-0.04,0.03c-0.01,0-0.01,0-0.01,0.01c-0.02,0.01-0.03,0.02-0.05,0.03l0,0c-0.01,0.01-0.03,0.02-0.04,0.03
		c0,0-0.01,0.01-0.01,0.01c-0.02,0.01-0.03,0.02-0.05,0.03l0,0c-0.02,0.01-0.03,0.02-0.04,0.03c0,0-0.01,0-0.01,0.01
		c-0.02,0.01-0.03,0.02-0.05,0.03l0,0c-0.02,0.01-0.03,0.02-0.05,0.03c0,0,0,0-0.01,0c-0.03,0.02-0.06,0.05-0.1,0.07c0,0,0,0,0,0
		c-0.03,0.02-0.07,0.05-0.1,0.07c0,0,0,0,0,0c-0.03,0.02-0.07,0.05-0.1,0.07l0,0c-0.8,0.57-1.59,1.15-2.37,1.74l1.2,1.6
		c2.08-1.57,4.25-3.08,6.44-4.5L169.44,137.45L169.44,137.45z M152.98,150.45c-0.81,0.77-1.6,1.56-2.38,2.35c0,0,0,0,0,0
		c-0.01,0.01-0.02,0.02-0.03,0.03c0,0,0,0,0,0c-0.02,0.02-0.03,0.04-0.05,0.06c0,0,0,0,0,0c-0.03,0.03-0.05,0.05-0.08,0.08
		c0,0,0,0-0.01,0.01c-0.03,0.03-0.05,0.05-0.08,0.08c0,0-0.01,0.01-0.01,0.01c-0.03,0.03-0.05,0.05-0.08,0.08
		c0,0-0.01,0.01-0.01,0.01c-0.03,0.03-0.05,0.05-0.08,0.08c0,0-0.01,0.01-0.01,0.01c-0.02,0.02-0.05,0.05-0.08,0.08
		c0,0-0.01,0.01-0.01,0.01c-0.02,0.02-0.05,0.05-0.08,0.08c0,0-0.01,0.01-0.01,0.01c-0.02,0.02-0.03,0.04-0.05,0.05c0,0,0,0,0,0
		c-0.01,0.01-0.02,0.02-0.02,0.02c0,0-0.01,0.01-0.01,0.01c-0.01,0.01-0.03,0.03-0.04,0.04c0,0-0.01,0.01-0.01,0.01
		c-0.01,0.01-0.02,0.02-0.02,0.02c0,0-0.01,0.01-0.01,0.01c-0.01,0.01-0.03,0.03-0.04,0.04c0,0-0.01,0.01-0.01,0.01
		c-0.01,0.01-0.02,0.02-0.02,0.02c0,0-0.01,0.01-0.01,0.01c-0.01,0.01-0.02,0.03-0.04,0.04c0,0-0.01,0.01-0.01,0.01
		c-0.01,0.01-0.01,0.01-0.02,0.02c-0.01,0.01-0.01,0.01-0.02,0.02c-0.01,0.01-0.02,0.02-0.03,0.04c-0.01,0.01-0.01,0.01-0.02,0.02
		c-0.01,0.01-0.01,0.01-0.02,0.02c0,0.01-0.01,0.01-0.01,0.02c-0.01,0.01-0.02,0.02-0.03,0.04c-0.01,0.01-0.01,0.01-0.02,0.02
		c-0.01,0.01-0.01,0.01-0.02,0.02c0,0.01-0.01,0.01-0.01,0.02c-0.01,0.01-0.02,0.02-0.03,0.04c-0.01,0.01-0.01,0.01-0.02,0.02
		c0,0-0.02,0.02-0.02,0.02c-0.01,0.01-0.01,0.01-0.02,0.02c-0.01,0.01-0.02,0.03-0.03,0.04c-0.01,0.01-0.01,0.01-0.02,0.02
		c0,0-0.02,0.02-0.02,0.02c0,0.01-0.01,0.01-0.01,0.02c-0.01,0.01-0.02,0.02-0.04,0.04c0,0-0.01,0.01-0.01,0.01
		c-0.01,0.01-0.01,0.02-0.02,0.02c0,0-0.01,0.01-0.01,0.01c-0.01,0.01-0.02,0.02-0.04,0.04c0,0-0.01,0.01-0.01,0.01
		c-0.01,0.01-0.02,0.02-0.02,0.02c0,0-0.01,0.01-0.01,0.01c-0.01,0.01-0.03,0.03-0.04,0.04c0,0-0.01,0.01-0.01,0.01
		c-0.01,0.01-0.02,0.02-0.02,0.02c0,0-0.01,0.01-0.01,0.01c-0.01,0.01-0.03,0.03-0.04,0.04c0,0-0.01,0.01-0.01,0.01
		c-0.01,0.01-0.02,0.02-0.02,0.02c0,0-0.01,0.01-0.01,0.01c-0.01,0.02-0.03,0.03-0.04,0.04c0,0-0.01,0.01-0.01,0.01
		c-0.01,0.01-0.02,0.02-0.02,0.02c0,0,0,0,0,0c-0.02,0.02-0.03,0.03-0.05,0.05c0,0-0.01,0.01-0.01,0.01
		c-0.02,0.03-0.05,0.06-0.08,0.08c0,0-0.01,0.01-0.01,0.01c-0.02,0.03-0.05,0.06-0.08,0.08c0,0,0,0.01-0.01,0.01
		c-0.02,0.03-0.05,0.06-0.08,0.08c0,0-0.01,0.01-0.01,0.01c-0.03,0.03-0.05,0.05-0.08,0.08c0,0-0.01,0.01-0.01,0.01
		c-0.03,0.03-0.05,0.06-0.08,0.08c0,0,0,0-0.01,0.01c-0.03,0.03-0.05,0.06-0.08,0.09c0,0,0,0,0,0c-0.03,0.03-0.05,0.06-0.08,0.09
		c0,0,0,0,0,0c-0.03,0.03-0.05,0.06-0.08,0.09c0,0,0,0,0,0c-0.25,0.27-0.5,0.54-0.74,0.81l1.48,1.34c1.75-1.93,3.59-3.83,5.47-5.63
		L152.98,150.45L152.98,150.45z M139.28,166.32c-0.09,0.13-0.18,0.26-0.27,0.39c0,0,0,0,0,0c-0.02,0.03-0.05,0.06-0.07,0.1
		c0,0,0,0.01-0.01,0.01c-0.01,0.01-0.01,0.02-0.02,0.03c0,0,0,0,0,0c-0.01,0.02-0.03,0.04-0.04,0.06c0,0.01-0.01,0.01-0.01,0.02
		c-0.01,0.01-0.01,0.02-0.02,0.03c-0.01,0.01-0.01,0.02-0.02,0.03c-0.01,0.01-0.01,0.02-0.02,0.03c-0.01,0.01-0.01,0.01-0.02,0.02
		c-0.01,0.01-0.01,0.01-0.01,0.02c-0.01,0.01-0.02,0.03-0.03,0.04c0,0.01-0.01,0.01-0.01,0.02c-0.01,0.01-0.01,0.02-0.02,0.03
		c-0.01,0.01-0.01,0.01-0.01,0.02c-0.01,0.01-0.02,0.03-0.03,0.04c0,0.01-0.01,0.01-0.01,0.01c-0.01,0.01-0.02,0.02-0.02,0.03
		c0,0-0.01,0.01-0.01,0.01c-0.01,0.01-0.02,0.03-0.03,0.04c0,0,0,0.01-0.01,0.01c-0.01,0.01-0.02,0.03-0.03,0.04
		c0,0,0,0.01-0.01,0.01c-0.01,0.02-0.02,0.03-0.03,0.05c0,0,0,0,0,0.01c-0.01,0.01-0.02,0.03-0.03,0.04l0,0.01
		c-0.01,0.02-0.02,0.03-0.03,0.05l0,0c-0.01,0.02-0.02,0.03-0.03,0.05l0,0c-0.01,0.02-0.02,0.03-0.03,0.05l0,0
		c-0.02,0.03-0.05,0.07-0.07,0.1l0,0c-0.55,0.81-1.1,1.62-1.63,2.44l0,0c-0.02,0.03-0.04,0.07-0.07,0.1l0,0
		c-0.01,0.02-0.02,0.03-0.03,0.05l0,0c-0.01,0.02-0.02,0.03-0.03,0.05c0,0,0,0,0,0.01c-0.01,0.02-0.02,0.03-0.03,0.05l0,0
		c-0.01,0.02-0.02,0.03-0.03,0.05c0,0,0,0.01-0.01,0.01c-0.01,0.01-0.02,0.03-0.03,0.04l0,0.01c-0.01,0.02-0.02,0.03-0.03,0.05
		c0,0,0,0.01-0.01,0.01c-0.01,0.01-0.02,0.03-0.03,0.04c0,0,0,0,0,0c-0.01,0.02-0.02,0.03-0.03,0.05c0,0-0.01,0.01-0.01,0.01
		c-0.01,0.01-0.02,0.03-0.03,0.04c0,0,0,0.01-0.01,0.01c-0.01,0.02-0.02,0.03-0.03,0.05c0,0-0.01,0.01-0.01,0.01
		c-0.01,0.01-0.02,0.02-0.02,0.04c0,0-0.01,0.01-0.01,0.01c-0.01,0.01-0.02,0.03-0.03,0.04c0,0.01-0.01,0.01-0.01,0.02
		c-0.01,0.01-0.01,0.02-0.02,0.03c0,0.01,0,0.01-0.01,0.01c-0.01,0.01-0.02,0.03-0.03,0.04c0,0.01-0.01,0.01-0.01,0.02
		c-0.01,0.01-0.01,0.02-0.02,0.03c-0.01,0.01-0.01,0.01-0.01,0.02c-0.01,0.01-0.01,0.02-0.02,0.03c0,0.01-0.01,0.02-0.01,0.02
		c-0.01,0.01-0.01,0.02-0.02,0.03c-0.01,0.01-0.01,0.02-0.02,0.03c-0.01,0.01-0.01,0.02-0.02,0.03c0,0.01-0.01,0.02-0.01,0.02
		c0,0.01-0.01,0.01-0.01,0.02c-0.01,0.01-0.02,0.03-0.03,0.04c0,0.01-0.01,0.01-0.01,0.02c-0.01,0.01-0.01,0.02-0.02,0.03
		c0,0.01-0.01,0.01-0.01,0.02c-0.01,0.02-0.02,0.03-0.03,0.05c0,0-0.01,0.01-0.01,0.01c-0.01,0.01-0.01,0.02-0.02,0.03
		c0,0-0.01,0.01-0.01,0.01c-0.01,0.02-0.02,0.04-0.03,0.06c0,0,0,0.01,0,0.01c-0.01,0.01-0.01,0.02-0.02,0.03c0,0,0,0,0,0.01
		c-0.01,0.02-0.03,0.04-0.04,0.06c0,0,0,0,0,0.01c-0.01,0.01-0.01,0.02-0.02,0.03c0,0,0,0,0,0c-0.01,0.02-0.03,0.05-0.04,0.07
		c0,0,0,0,0,0c-0.27,0.43-0.54,0.86-0.8,1.3l1.71,1.04c1.35-2.23,2.8-4.44,4.31-6.56L139.28,166.32L139.28,166.32z M128.83,184.5
		c0,0.01-0.01,0.02-0.01,0.03c0,0,0,0,0,0c-0.02,0.03-0.03,0.07-0.05,0.11c0,0,0,0.01,0,0.01c-0.02,0.04-0.03,0.07-0.05,0.11
		c0,0,0,0,0,0.01c-0.02,0.04-0.03,0.07-0.05,0.11c0,0,0,0,0,0.01c-0.02,0.04-0.03,0.07-0.05,0.11c0,0,0,0,0,0.01
		c-0.02,0.03-0.03,0.07-0.05,0.11c0,0,0,0.01,0,0.01c-0.02,0.04-0.03,0.07-0.05,0.11c0,0,0,0,0,0.01c-0.01,0.01-0.01,0.02-0.02,0.04
		c0,0,0,0,0,0c-0.01,0.02-0.02,0.05-0.03,0.07c0,0,0,0.01,0,0.01c-0.01,0.01-0.01,0.02-0.02,0.04l0,0
		c-0.01,0.03-0.02,0.05-0.03,0.07c0,0,0,0,0,0.01c-0.01,0.01-0.01,0.02-0.02,0.04c0,0,0,0,0,0c-0.01,0.02-0.02,0.05-0.03,0.07
		c0,0,0,0.01,0,0.01c-0.01,0.01-0.01,0.02-0.02,0.03c0,0,0,0,0,0c-0.01,0.02-0.02,0.05-0.03,0.07c0,0,0,0,0,0.01
		c-0.01,0.01-0.01,0.02-0.02,0.03c0,0,0,0,0,0.01c-0.01,0.03-0.02,0.04-0.03,0.07c0,0,0,0,0,0.01c-0.01,0.01-0.01,0.02-0.02,0.04
		c0,0,0,0,0,0c-0.01,0.03-0.02,0.04-0.03,0.07c0,0,0,0,0,0c-0.01,0.01-0.01,0.02-0.02,0.04c0,0,0,0,0,0
		c-0.01,0.03-0.02,0.05-0.03,0.07c0,0,0,0,0,0c-0.01,0.01-0.01,0.02-0.02,0.04c0,0,0,0,0,0c-0.01,0.03-0.02,0.05-0.03,0.07
		c0,0,0,0,0,0c-0.01,0.01-0.01,0.02-0.02,0.04c0,0,0,0,0,0.01c-0.01,0.02-0.02,0.05-0.03,0.07c0,0,0,0,0,0
		c-0.01,0.01-0.01,0.02-0.02,0.04c0,0,0,0,0,0c-0.02,0.04-0.03,0.07-0.05,0.11c0,0,0,0,0,0.01c-0.02,0.04-0.03,0.07-0.05,0.11
		c0,0,0,0,0,0c-0.02,0.04-0.03,0.07-0.05,0.11c0,0,0,0,0,0.01c-0.02,0.04-0.03,0.07-0.05,0.11c0,0,0,0,0,0
		c-0.02,0.04-0.03,0.07-0.05,0.11c0,0,0,0,0,0c-0.02,0.04-0.03,0.07-0.05,0.11c0,0,0,0,0,0c-0.02,0.04-0.03,0.07-0.05,0.11
		c0,0,0,0,0,0.01c-0.02,0.04-0.03,0.07-0.05,0.11c0,0,0,0,0,0c-0.02,0.04-0.03,0.08-0.05,0.11c0,0,0,0,0,0
		c-0.63,1.51-1.23,3.03-1.8,4.57l1.88,0.69c0.9-2.45,1.9-4.89,2.98-7.26L128.83,184.5L128.83,184.5z M122.04,204.34
		c-0.5,2.12-0.95,4.26-1.33,6.42l0,0c-0.01,0.03-0.01,0.06-0.02,0.09c0,0,0,0,0,0c0,0.01,0,0.02,0,0.03c0,0,0,0,0,0.01
		c0,0.03-0.01,0.06-0.01,0.08c0,0,0,0.01,0,0.01c0,0.01,0,0.02,0,0.02c0,0,0,0.01,0,0.01c0,0.01,0,0.03-0.01,0.04c0,0,0,0.01,0,0.01
		c0,0.01,0,0.01,0,0.02c0,0.01,0,0.01,0,0.02c0,0.01,0,0.01,0,0.02c0,0.01,0,0.02-0.01,0.03c0,0,0,0.01,0,0.01c0,0.01,0,0.02,0,0.02
		c0,0.01,0,0.01,0,0.02c0,0.01,0,0.02,0,0.02c0,0,0,0.01,0,0.01c0,0.01,0,0.02-0.01,0.04c0,0,0,0.01,0,0.01c0,0.01,0,0.02,0,0.03
		c0,0,0,0.01,0,0.01c0,0.03-0.01,0.05-0.01,0.08c0,0,0,0,0,0.01c0,0.01,0,0.02-0.01,0.03c0,0,0,0,0,0.01c0,0.03-0.01,0.05-0.01,0.08
		c0,0,0,0,0,0c-0.04,0.21-0.07,0.42-0.1,0.63l1.97,0.32c0.42-2.58,0.93-5.17,1.54-7.7L122.04,204.34L122.04,204.34z M119.15,225.11
		c-0.02,0.57-0.04,1.13-0.06,1.7c0,0,0,0,0,0c0,0.01,0,0.03,0,0.04c0,0,0,0,0,0c0,0.04,0,0.09,0,0.13c0,0,0,0,0,0.01
		c0,0.01,0,0.02,0,0.04c0,0,0,0.01,0,0.01c0,0.01,0,0.02,0,0.03c0,0,0,0.01,0,0.01c0,0.01,0,0.02,0,0.03c0,0,0,0.01,0,0.01
		c0,0.01,0,0.02,0,0.04c0,0,0,0,0,0c0,0.01,0,0.03,0,0.04c0,0,0,0,0,0.01c0,0.01,0,0.02,0,0.03c0,0.01,0,0.01,0,0.02
		c0,0.01,0,0.02,0,0.03c0,0,0,0.01,0,0.01c0,0.01,0,0.02,0,0.03c0,0.01,0,0.01,0,0.02c0,0.01,0,0.02,0,0.03c0,0,0,0.01,0,0.01
		c0,0.01,0,0.02,0,0.03c0,0.01,0,0.01,0,0.02c0,0.01,0,0.02,0,0.03c0,0.01,0,0.01,0,0.02c0,0.01,0,0.02,0,0.02c0,0.01,0,0.01,0,0.02
		c0,0.01,0,0.01,0,0.02c0,0.01,0,0.01,0,0.02c0,0.01,0,0.01,0,0.02c0,0.01,0,0.01,0,0.02c0,0.01,0,0.02,0,0.02c0,0.01,0,0.01,0,0.02
		c0,0.01,0,0.02,0,0.03c0,0.01,0,0.02,0,0.02c0,0,0,0.02,0,0.02c0,0.01,0,0.01,0,0.02c0,0.01,0,0.01,0,0.02c0,0.01,0,0.01,0,0.02
		c0,0.01,0,0.01,0,0.02c0,0.01,0,0.01,0,0.02c0,0,0,0.01,0,0.02c0,0.01,0,0.02,0,0.02c0,0,0,0.02,0,0.02c0,0.01,0,0.03,0,0.04
		c0,0.01,0,0.01,0,0.02c0,0.01,0,0.02,0,0.02c0,0,0,0.01,0,0.02c0,0.01,0,0.01,0,0.02c0,0.01,0,0.01,0,0.02c0,0.01,0,0.01,0,0.02
		c0,0.01,0,0.01,0,0.02c0,0.01,0,0.01,0,0.02c0,0.01,0,0.01,0,0.02c0,0.01,0,0.01,0,0.02c0,0.01,0,0.01,0,0.02c0,0.01,0,0.03,0,0.04
		c0,0,0,0.02,0,0.02c0,0.01,0,0.01,0,0.02c0,0.01,0,0.01,0,0.02c0,0.01,0,0.01,0,0.02c0,0.01,0,0.01,0,0.02c0,0.01,0,0.01,0,0.02
		c0,0.01,0,0.01,0,0.02c0,0.01,0,0.02,0,0.02c0,0,0,0.01,0,0.02c0,0.01,0,0.03,0,0.04c0,0.01,0,0.01,0,0.02c0,0.01,0,0.02,0,0.02
		c0,0,0,0.01,0,0.02c0,0.01,0,0.02,0,0.02c0,0.01,0,0.01,0,0.02c0,0.01,0,0.01,0,0.02c0,0.01,0,0.01,0,0.02c0,0.01,0,0.01,0,0.02
		c0,0.01,0,0.01,0,0.02c0,0.01,0,0.01,0,0.02c0,0.01,0,0.01,0,0.02c0,0.01,0,0.02,0,0.03c0,0.01,0,0.02,0,0.03c0,0.01,0,0.01,0,0.02
		c0,0.01,0,0.02,0,0.02c0,0.01,0,0.01,0,0.02c0,0.01,0,0.02,0,0.02c0,0.01,0,0.01,0,0.02c0,0.01,0,0.01,0,0.02c0,0.01,0,0.01,0,0.02
		c0,0.01,0,0.02,0,0.02c0,0.01,0,0.01,0,0.02c0,0.01,0,0.02,0,0.04c0,0.01,0,0.01,0,0.02c0,0.01,0,0.01,0,0.02c0,0.01,0,0.01,0,0.02
		c0,0.01,0,0.02,0,0.02c0,0.01,0,0.01,0,0.02c0,0.01,0,0.02,0,0.02c0,0.01,0,0.01,0,0.02c0,0.01,0,0.02,0,0.02c0,0.01,0,0.01,0,0.02
		c0,0.01,0,0.02,0,0.03c0,0,0,0.01,0,0.01c0,0.01,0,0.02,0,0.04c0,0.01,0,0.01,0,0.02c0,0.01,0,0.02,0,0.02c0,0.01,0,0.01,0,0.02
		c0,0.01,0,0.02,0,0.02c0,0.01,0,0.01,0,0.02c0,0.01,0,0.02,0,0.03c0,0.01,0,0.01,0,0.02c0,0.01,0,0.02,0,0.03c0,0,0,0.01,0,0.01
		c0,0.01,0,0.03,0,0.04c0,0,0,0.01,0,0.01c0,0.01,0,0.02,0,0.03c0,0.01,0,0.01,0,0.02c0,0.01,0,0.02,0,0.02c0,0.01,0,0.01,0,0.02
		c0,0.01,0,0.02,0,0.02c0,0.01,0,0.01,0,0.02c0,0.01,0,0.02,0,0.03c0,0.01,0,0.01,0,0.02c0,0.01,0,0.02,0,0.03c0,0,0,0.01,0,0.01
		c0,0.01,0,0.03,0,0.04c0,0,0,0.01,0,0.01c0,0.01,0,0.02,0,0.03c0,0.01,0,0.01,0,0.02c0,0.01,0,0.02,0,0.03c0,0.01,0,0.01,0,0.02
		c0,0.01,0,0.02,0,0.03c0,0.01,0,0.01,0,0.01c0,0.01,0,0.02,0,0.03c0,0,0,0.01,0,0.01c0,0.01,0,0.03,0,0.04c0,0.02,0,0.03,0,0.05
		c0,0.01,0,0.01,0,0.02c0,0.01,0,0.02,0,0.03c0,0,0,0.01,0,0.02c0,0.01,0,0.02,0,0.03c0,0.01,0,0.01,0,0.02c0,0.01,0,0.02,0,0.03
		c0,0.01,0,0.01,0,0.02c0,0.01,0,0.02,0,0.03c0,0.01,0,0.01,0,0.02c0,0.01,0,0.02,0,0.03c0,0,0,0.01,0,0.02c0,0.01,0,0.03,0,0.04
		c0,0,0,0,0,0.01c0,0.03,0,0.07,0,0.1c0,0,0,0,0,0c0,0.01,0,0.03,0,0.04c0,0,0,0.01,0,0.01c0,0.01,0,0.03,0,0.04c0,0,0,0.01,0,0.01
		c0,0.01,0,0.03,0,0.04l0,0.01c0,0.01,0,0.03,0,0.04c0,0,0,0,0,0.01c0,0.01,0,0.03,0,0.04v0c0,0.48,0.01,0.96,0.02,1.45c0,0,0,0,0,0
		c0,0.01,0,0.03,0,0.04l0,0.01c0,0.01,0,0.03,0,0.04c0,0,0,0.01,0,0.01c0,0.01,0,0.02,0,0.04c0,0,0,0.01,0,0.01
		c0,0.01,0,0.02,0,0.04c0,0,0,0.01,0,0.01c0,0.01,0,0.02,0,0.03c0,0.01,0,0.03,0,0.05c0,0,0,0.01,0,0.01c0,0.01,0,0.02,0,0.04
		c0,0,0,0.01,0,0.01c0,0.01,0,0.03,0,0.04c0,0,0,0,0,0c0.01,0.22,0.01,0.44,0.02,0.66l2-0.06c-0.03-1.04-0.04-2.09-0.04-3.14
		c0-1.57,0.03-3.16,0.1-4.72L119.15,225.11L119.15,225.11z M122.2,245.76l-1.98,0.29c0.39,2.65,0.88,5.28,1.45,7.87l1.95-0.43
		C123.06,250.94,122.58,248.34,122.2,245.76L122.2,245.76z M127.13,265.74l-1.89,0.66l0,0c0.01,0.04,0.03,0.07,0.04,0.11
		c0,0,0,0.01,0,0.01c0.01,0.02,0.01,0.03,0.02,0.05c0,0,0,0,0,0c0.01,0.02,0.01,0.03,0.02,0.05c0,0.01,0,0.01,0.01,0.02
		c0,0.01,0.01,0.03,0.01,0.04c0,0,0,0.01,0,0.01c0.01,0.02,0.01,0.03,0.02,0.05c0,0.01,0,0.01,0.01,0.02c0,0.01,0.01,0.02,0.01,0.03
		c0,0.01,0,0.01,0.01,0.02c0,0.01,0.01,0.03,0.01,0.04c0,0.01,0.01,0.02,0.01,0.03c0,0.01,0.01,0.02,0.01,0.02
		c0.01,0.02,0.01,0.03,0.02,0.04c0,0.01,0.01,0.02,0.01,0.02c0,0.01,0.01,0.02,0.01,0.03c0,0.01,0,0.01,0.01,0.02
		c0.01,0.02,0.01,0.04,0.02,0.06c0,0,0,0.01,0,0.01c0,0.01,0.01,0.02,0.01,0.03c0,0,0,0.01,0,0.01c0.01,0.04,0.03,0.07,0.04,0.11
		c0,0,0,0,0,0.01c0.67,1.85,1.38,3.67,2.14,5.46c0,0,0,0,0,0.01c0.02,0.04,0.03,0.07,0.05,0.11c0,0,0,0,0,0
		c0.02,0.04,0.03,0.07,0.05,0.11c0,0,0,0,0,0.01c0.02,0.04,0.03,0.07,0.05,0.11c0,0,0,0.01,0.01,0.01c0.01,0.03,0.03,0.07,0.04,0.1
		c0,0.01,0,0.01,0.01,0.02c0.01,0.03,0.03,0.07,0.04,0.1c0,0.01,0.01,0.01,0.01,0.02c0,0.01,0.01,0.02,0.01,0.03
		c0,0.01,0.01,0.01,0.01,0.02c0.01,0.02,0.01,0.03,0.02,0.05c0,0.01,0.01,0.01,0.01,0.02c0,0.01,0.01,0.02,0.01,0.03
		c0,0.01,0.01,0.02,0.01,0.03c0.01,0.01,0.01,0.03,0.02,0.04c0,0.01,0.01,0.01,0.01,0.02c0,0.01,0.01,0.02,0.01,0.03
		c0,0.01,0.01,0.02,0.01,0.03c0,0.01,0.01,0.02,0.01,0.03c0,0.01,0.01,0.02,0.01,0.03c0,0.01,0.01,0.01,0.01,0.02
		c0.01,0.01,0.01,0.03,0.02,0.04c0,0.01,0.01,0.02,0.01,0.03c0,0.01,0.01,0.02,0.01,0.03c0,0.01,0.01,0.02,0.01,0.02
		c0.01,0.01,0.01,0.03,0.02,0.04c0,0.01,0,0,0,0.01l1.83-0.8C128.96,270.66,128,268.2,127.13,265.74L127.13,265.74z M135.79,284.42
		l-1.73,1.01c0.21,0.36,0.42,0.72,0.64,1.08l0,0c0.02,0.03,0.04,0.07,0.06,0.1l0,0.01c0.02,0.03,0.04,0.07,0.06,0.1
		c0,0.01,0,0,0.01,0.01c0.01,0.02,0.02,0.03,0.03,0.05l0,0c0.01,0.02,0.02,0.03,0.03,0.05c0,0.01,0,0.01,0.01,0.01
		c0.01,0.01,0.02,0.03,0.02,0.04c0,0.01,0,0.01,0.01,0.01c0.01,0.01,0.02,0.03,0.02,0.04c0,0.01,0.01,0.01,0.01,0.02
		c0.01,0.01,0.01,0.02,0.02,0.04c0,0.01,0.01,0.02,0.01,0.02c0.01,0.01,0.01,0.02,0.02,0.03c0,0.01,0.01,0.02,0.01,0.02
		c0.01,0.01,0.01,0.02,0.02,0.03c0.01,0.01,0.01,0.02,0.02,0.04c0,0.01,0.01,0.01,0.01,0.02c0.01,0.01,0.01,0.02,0.02,0.03
		c0,0.01,0.01,0.01,0.01,0.02c0.01,0.02,0.02,0.03,0.03,0.05c0,0.01,0.01,0.01,0.01,0.02c0.01,0.01,0.01,0.02,0.02,0.03
		c0,0,0,0,0,0.01c0.01,0.02,0.02,0.04,0.04,0.06c0,0,0,0,0,0.01c0.02,0.04,0.04,0.07,0.06,0.1c0,0,0,0,0,0
		c0.99,1.61,2.01,3.18,3.08,4.73l1.65-1.13C138.52,288.9,137.11,286.67,135.79,284.42L135.79,284.42z M147.84,301.11l-1.5,1.32
		c1.58,1.8,3.22,3.55,4.91,5.24l0,0c0.03,0.03,0.06,0.06,0.09,0.09l0,0c0.03,0.03,0.05,0.05,0.08,0.08c0,0,0,0,0.01,0.01
		c0.01,0.01,0.03,0.03,0.04,0.04l0,0c0.01,0.01,0.03,0.03,0.04,0.04c0,0,0.01,0.01,0.01,0.01c0.01,0.01,0.02,0.02,0.04,0.04
		c0,0,0.01,0.01,0.01,0.01c0.01,0.01,0.02,0.02,0.03,0.03c0,0,0.01,0.01,0.01,0.01c0.01,0.01,0.02,0.02,0.03,0.03
		c0.01,0.01,0.01,0.01,0.02,0.02c0.01,0.01,0.02,0.01,0.02,0.02c0,0,0.01,0.01,0.02,0.02c0.01,0.01,0.02,0.02,0.02,0.02
		c0.01,0.01,0.02,0.02,0.03,0.03c0.01,0.01,0.01,0.01,0.02,0.02c0.01,0.01,0.02,0.02,0.02,0.02c0,0,0.01,0.01,0.01,0.01
		c0.01,0.01,0.02,0.02,0.03,0.03l1.4-1.42C151.37,305,149.56,303.07,147.84,301.11L147.84,301.11z M162.82,315.23l-1.23,1.58
		c0.43,0.33,0.86,0.66,1.29,0.99l0,0c0.03,0.02,0.07,0.05,0.1,0.07l0,0c0.03,0.02,0.07,0.05,0.1,0.07l0,0
		c0.03,0.02,0.06,0.05,0.1,0.07c0,0,0,0,0,0c0.03,0.02,0.06,0.05,0.1,0.07c0,0,0,0,0,0c0.03,0.02,0.06,0.05,0.1,0.07c0,0,0,0,0.01,0
		c0.02,0.01,0.03,0.02,0.05,0.04l0,0c0.02,0.01,0.03,0.02,0.05,0.03c0,0,0,0,0.01,0c0.02,0.01,0.03,0.02,0.05,0.04l0,0
		c0.01,0.01,0.03,0.02,0.04,0.03c0,0,0.01,0,0.01,0.01c0.02,0.01,0.03,0.02,0.05,0.03l0,0c0.01,0.01,0.03,0.02,0.04,0.03
		c0,0,0.01,0,0.01,0.01c0.02,0.01,0.03,0.02,0.05,0.03l0.01,0c0.01,0.01,0.03,0.02,0.04,0.03c0,0,0.01,0,0.01,0.01
		c0.02,0.01,0.03,0.02,0.05,0.03c0,0,0,0,0.01,0.01c0.01,0.01,0.03,0.02,0.04,0.03c0,0,0.01,0,0.01,0.01
		c0.01,0.01,0.03,0.02,0.04,0.03c0,0,0.01,0,0.01,0.01c0.01,0.01,0.03,0.02,0.04,0.03c0,0,0.01,0,0.01,0.01
		c0.01,0.01,0.03,0.02,0.04,0.03c0,0,0.01,0,0.01,0.01c0.01,0.01,0.03,0.02,0.04,0.03l0.01,0.01c0.01,0.01,0.03,0.02,0.04,0.03
		c0,0,0.01,0,0.01,0.01c0.01,0.01,0.03,0.02,0.04,0.03c0,0,0,0,0.01,0.01c0.02,0.01,0.03,0.02,0.05,0.03c0,0,0.01,0,0.01,0.01
		c0.01,0.01,0.03,0.02,0.04,0.03c0,0,0,0,0,0c0.02,0.01,0.03,0.02,0.05,0.03c0,0,0.01,0,0.01,0.01c0.01,0.01,0.03,0.02,0.04,0.03
		c0,0,0,0,0.01,0.01c0.01,0.01,0.03,0.02,0.04,0.03c0,0,0.01,0.01,0.01,0.01c0.01,0.01,0.03,0.02,0.04,0.03c0,0,0,0,0.01,0
		c0.02,0.01,0.03,0.02,0.04,0.03c0,0,0.01,0.01,0.01,0.01c0.01,0.01,0.03,0.02,0.04,0.03c0,0,0,0,0,0c0.01,0.01,0.03,0.02,0.04,0.03
		c0,0,0.01,0.01,0.01,0.01c0.01,0.01,0.03,0.02,0.04,0.03c0,0,0,0,0,0c0.02,0.01,0.03,0.02,0.05,0.03c0,0,0.01,0.01,0.01,0.01
		c0.01,0.01,0.03,0.02,0.04,0.03l0,0c0.02,0.01,0.03,0.02,0.05,0.03c0,0,0.01,0,0.01,0.01c0.02,0.01,0.03,0.02,0.05,0.03l0,0
		c0.02,0.01,0.03,0.02,0.05,0.03c0.01,0,0,0,0.01,0.01c0.03,0.02,0.06,0.04,0.09,0.07l0.01,0c0.03,0.02,0.06,0.05,0.09,0.07
		c0,0,0,0,0.01,0.01c0.03,0.02,0.06,0.05,0.1,0.07c0,0,0,0,0.01,0c0.03,0.02,0.06,0.05,0.1,0.07c0,0,0,0,0,0
		c0.03,0.02,0.07,0.05,0.1,0.07c0,0,0,0,0,0c0.03,0.02,0.07,0.05,0.1,0.07c0,0,0,0,0,0c0.03,0.02,0.07,0.05,0.1,0.07l0,0
		c0.8,0.56,1.61,1.12,2.42,1.66l1.11-1.66C167.03,318.38,164.88,316.83,162.82,315.23L162.82,315.23z M180.21,326.27l-0.91,1.78
		c0.47,0.24,0.94,0.47,1.42,0.71c0,0,0,0,0,0c0.04,0.02,0.07,0.03,0.11,0.05c0,0,0.01,0,0.01,0c0.03,0.02,0.07,0.03,0.1,0.05
		c0,0,0.01,0,0.01,0c0.03,0.02,0.07,0.03,0.1,0.05c0,0,0.01,0,0.01,0.01c0.02,0.01,0.04,0.02,0.06,0.03c0,0,0,0,0.01,0
		c0.01,0,0.02,0.01,0.03,0.01c0.01,0,0.01,0.01,0.02,0.01c0.02,0.01,0.03,0.02,0.05,0.02c0.01,0,0.01,0.01,0.02,0.01
		c0.01,0,0.02,0.01,0.03,0.01c0.01,0,0.01,0.01,0.02,0.01c0.01,0.01,0.02,0.01,0.03,0.02c0.01,0.01,0.02,0.01,0.03,0.02
		c0.01,0,0.01,0.01,0.02,0.01c0.01,0,0.02,0.01,0.03,0.01c0.01,0,0.02,0.01,0.02,0.01c0.01,0.01,0.03,0.01,0.04,0.02
		c0.01,0,0.01,0.01,0.02,0.01c0.01,0,0.02,0.01,0.03,0.01c0.01,0,0.02,0.01,0.02,0.01c0.01,0.01,0.03,0.01,0.04,0.02
		c0.01,0,0.01,0.01,0.02,0.01c0.01,0,0.02,0.01,0.03,0.01c0.01,0,0.01,0.01,0.02,0.01c0.01,0.01,0.03,0.01,0.04,0.02
		c0.01,0,0.01,0.01,0.02,0.01c0.01,0,0.02,0.01,0.03,0.01c0.01,0,0.01,0.01,0.02,0.01c0.01,0.01,0.03,0.01,0.04,0.02
		c0.01,0,0.01,0,0.02,0.01c0.01,0,0.02,0.01,0.03,0.01c0.01,0,0.01,0.01,0.02,0.01c0.01,0.01,0.03,0.01,0.04,0.02
		c0.01,0,0.01,0.01,0.02,0.01c0.01,0,0.02,0.01,0.03,0.01c0.01,0,0.01,0.01,0.02,0.01c0.01,0.01,0.03,0.01,0.04,0.02
		c0.01,0,0.01,0.01,0.02,0.01c0.01,0.01,0.02,0.01,0.03,0.02c0.01,0,0.01,0.01,0.02,0.01c0.02,0.01,0.03,0.01,0.04,0.02
		c0.01,0,0.01,0.01,0.02,0.01c0.01,0.01,0.02,0.01,0.03,0.02c0.01,0,0.01,0,0.02,0.01c0.02,0.01,0.03,0.01,0.05,0.02
		c0,0,0.01,0.01,0.02,0.01c0.01,0.01,0.02,0.01,0.03,0.02c0.01,0,0.01,0,0.02,0.01c0.02,0.01,0.03,0.01,0.05,0.02
		c0,0,0.01,0.01,0.02,0.01c0.01,0.01,0.02,0.01,0.04,0.02c0.01,0,0.01,0,0.02,0.01c0.02,0.01,0.03,0.01,0.05,0.02
		c0,0,0.01,0.01,0.01,0.01c0.01,0.01,0.03,0.01,0.04,0.02c0,0,0.01,0,0.01,0.01c0.02,0.01,0.03,0.02,0.05,0.02c0,0,0.01,0,0.01,0.01
		c0.01,0.01,0.03,0.01,0.04,0.02c0,0,0.01,0,0.01,0.01c0.02,0.01,0.03,0.01,0.05,0.02c0,0,0.01,0,0.01,0.01
		c0.01,0.01,0.03,0.01,0.04,0.02c0,0,0.01,0,0.01,0.01c0.02,0.01,0.03,0.02,0.05,0.02c0,0,0.01,0,0.01,0.01
		c0.01,0.01,0.03,0.01,0.04,0.02c0,0,0.01,0,0.01,0.01c0.02,0.01,0.03,0.02,0.05,0.02c0,0,0.01,0,0.01,0.01
		c0.01,0.01,0.03,0.01,0.04,0.02c0,0,0.01,0,0.01,0c0.02,0.01,0.03,0.02,0.05,0.02c0,0,0.01,0,0.01,0c0.01,0.01,0.03,0.01,0.04,0.02
		c0,0,0.01,0,0.01,0c0.02,0.01,0.03,0.02,0.05,0.02l0.01,0c0.02,0.01,0.03,0.01,0.05,0.02c0,0,0.01,0,0.01,0
		c0.02,0.01,0.03,0.02,0.05,0.02l0.01,0c0.02,0.01,0.03,0.01,0.05,0.02c0,0,0.01,0,0.01,0c0.02,0.01,0.03,0.02,0.05,0.02l0.01,0
		c0.02,0.01,0.03,0.02,0.05,0.02c0,0,0,0,0.01,0c0.02,0.01,0.04,0.02,0.05,0.02l0,0c0.02,0.01,0.03,0.02,0.05,0.02c0,0,0,0,0.01,0
		c0.02,0.01,0.04,0.02,0.05,0.02l0,0c0.02,0.01,0.03,0.02,0.05,0.02c0,0,0,0,0.01,0c0.02,0.01,0.04,0.02,0.05,0.02l0,0
		c0.02,0.01,0.04,0.02,0.05,0.02c0,0,0,0,0.01,0c0.02,0.01,0.04,0.02,0.05,0.02l0,0c0.02,0.01,0.04,0.02,0.05,0.02c0,0,0,0,0,0
		c0.04,0.02,0.07,0.03,0.11,0.05c0,0,0,0,0,0c0.04,0.02,0.07,0.03,0.11,0.05c0,0,0,0,0,0c0.04,0.02,0.07,0.03,0.11,0.05c0,0,0,0,0,0
		c0.04,0.02,0.08,0.03,0.11,0.05l0,0c0.04,0.02,0.08,0.03,0.11,0.05l0,0c0.69,0.3,1.38,0.6,2.07,0.89l0.77-1.84
		C184.93,328.56,182.53,327.45,180.21,326.27L180.21,326.27z M199.37,333.78l-0.55,1.92c2.55,0.73,5.14,1.37,7.77,1.91l0.41-1.96
		C204.44,335.13,201.87,334.5,199.37,333.78L199.37,333.78z M219.61,337.51l-0.17,1.99c1.04,0.09,2.08,0.17,3.13,0.23h0
		c0.03,0,0.06,0,0.09,0.01c0,0,0,0,0,0c0.01,0,0.02,0,0.03,0c0,0,0,0,0,0c0.03,0,0.06,0,0.09,0c0.01,0,0.01,0,0.01,0
		c0.01,0,0.02,0,0.02,0c0,0,0.01,0,0.02,0c0.01,0,0.02,0,0.03,0c0.01,0,0.01,0,0.02,0c0.01,0,0.01,0,0.02,0c0.01,0,0.02,0,0.03,0
		c0.01,0,0.01,0,0.02,0c0.01,0,0.02,0,0.03,0c0.01,0,0.01,0,0.02,0c0.01,0,0.02,0,0.03,0c0,0,0.01,0,0.01,0c0.01,0,0.02,0,0.04,0
		c0,0,0.01,0,0.01,0c0.01,0,0.02,0,0.03,0c0,0,0.01,0,0.01,0c0.03,0,0.05,0,0.08,0c0,0,0,0,0.01,0c0.01,0,0.02,0,0.04,0c0,0,0,0,0,0
		c1.38,0.07,2.78,0.12,4.17,0.14l0.03-2C224.85,337.86,222.21,337.73,219.61,337.51L219.61,337.51z M247.99,336.26
		c-2.56,0.45-5.18,0.82-7.78,1.09l0.2,1.99c2.23-0.23,4.43-0.52,6.62-0.88c0,0,0,0,0,0c0.03,0,0.05-0.01,0.08-0.01c0,0,0,0,0.01,0
		c0.01,0,0.02,0,0.03-0.01c0,0,0.01,0,0.01,0c0.01,0,0.02,0,0.04-0.01c0,0,0,0,0,0c0.01,0,0.02,0,0.03-0.01c0,0,0.01,0,0.01,0
		c0.01,0,0.02,0,0.03-0.01c0,0,0,0,0.01,0c0.01,0,0.02,0,0.04-0.01c0,0,0.01,0,0.01,0c0.01,0,0.02,0,0.03,0c0,0,0.01,0,0.01,0
		c0.01,0,0.02,0,0.03-0.01c0.01,0,0.01,0,0.02,0c0.01,0,0.02,0,0.02,0c0.01,0,0.01,0,0.02,0c0.01,0,0.01,0,0.02,0
		c0.02,0,0.05-0.01,0.07-0.01c0,0,0.01,0,0.01,0c0.01,0,0.02,0,0.02,0c0,0,0.01,0,0.01,0c0.03,0,0.05-0.01,0.08-0.01l0,0
		c0.21-0.04,0.43-0.07,0.64-0.11L247.99,336.26L247.99,336.26z M267.82,330.75c-2.43,0.94-4.93,1.79-7.43,2.55l0.58,1.91
		c0.03-0.01,0.06-0.02,0.09-0.03c0,0,0.01,0,0.01,0c0.01,0,0.02-0.01,0.03-0.01c0,0,0.01,0,0.01,0c0.02-0.01,0.04-0.01,0.06-0.02
		c0.01,0,0.01,0,0.02-0.01c0.01,0,0.02-0.01,0.03-0.01c0.01,0,0.01,0,0.02-0.01c0.02-0.01,0.03-0.01,0.05-0.02
		c0.01,0,0.01,0,0.02-0.01c0.01,0,0.02-0.01,0.03-0.01c0.01,0,0.02,0,0.02-0.01c0.01,0,0.03-0.01,0.04-0.01
		c0.01,0,0.02-0.01,0.03-0.01c0.01,0,0.02-0.01,0.03-0.01c0.01,0,0.02-0.01,0.03-0.01c0.01,0,0.02-0.01,0.03-0.01
		c0.01,0,0.03-0.01,0.04-0.01c0.01,0,0.01,0,0.02-0.01c0.01,0,0.02-0.01,0.04-0.01c0.01,0,0.01,0,0.02,0
		c0.02-0.01,0.03-0.01,0.05-0.02c0,0,0.01,0,0.02-0.01c0.01,0,0.03-0.01,0.04-0.01c0,0,0.01,0,0.01,0c0.02-0.01,0.03-0.01,0.05-0.02
		c0,0,0.01,0,0.01,0c0.01,0,0.03-0.01,0.04-0.01c0.01,0,0.01,0,0.01,0c0.02-0.01,0.03-0.01,0.05-0.02c0,0,0.01,0,0.01,0
		c0.01,0,0.03-0.01,0.04-0.01c0,0,0.01,0,0.01,0c0.02-0.01,0.04-0.01,0.05-0.02l0.01,0c0.02-0.01,0.03-0.01,0.05-0.02l0.01,0
		c0.02-0.01,0.04-0.01,0.06-0.02l0,0c0.02-0.01,0.04-0.01,0.06-0.02l0,0c0.04-0.01,0.08-0.02,0.12-0.04l0,0
		c1.59-0.51,3.17-1.05,4.73-1.62l0,0c0.02-0.01,0.04-0.01,0.06-0.02l0,0c0.02-0.01,0.04-0.01,0.06-0.02l0,0
		c0.02-0.01,0.03-0.01,0.05-0.02l0.01,0c0.02-0.01,0.04-0.01,0.05-0.02c0,0,0.01,0,0.01,0c0.01-0.01,0.03-0.01,0.04-0.02
		c0,0,0.01,0,0.01,0c0.02-0.01,0.03-0.01,0.05-0.02c0.01,0,0.01,0,0.01,0c0.01,0,0.03-0.01,0.04-0.01c0,0,0.01,0,0.02-0.01
		c0.02-0.01,0.03-0.01,0.05-0.02c0.01,0,0.01,0,0.02-0.01c0.01,0,0.02-0.01,0.03-0.01c0.01,0,0.01-0.01,0.02-0.01
		c0.01,0,0.03-0.01,0.04-0.01c0.01,0,0.02-0.01,0.03-0.01c0.01,0,0.02-0.01,0.02-0.01c0.01,0,0.02-0.01,0.03-0.01
		c0.01,0,0.01-0.01,0.02-0.01c0.02-0.01,0.03-0.01,0.05-0.02c0.01,0,0.01,0,0.02-0.01c0.01,0,0.02-0.01,0.03-0.01c0,0,0,0,0.01,0
		c0.03-0.01,0.04-0.02,0.07-0.03c0,0,0,0,0.01,0c0.2-0.08,0.4-0.15,0.6-0.23L267.82,330.75L267.82,330.75z M286.23,321.55
		c-2.21,1.38-4.5,2.7-6.8,3.92l0.93,1.77c2.01-1.06,3.99-2.19,5.92-3.37c0,0,0,0,0,0c0.02-0.01,0.03-0.02,0.05-0.03l0,0
		c0.02-0.01,0.03-0.02,0.05-0.03c0,0,0,0,0.01,0c0.02-0.01,0.03-0.02,0.05-0.03c0,0,0,0,0.01,0c0.01-0.01,0.03-0.02,0.04-0.03
		c0,0,0.01,0,0.01-0.01c0.02-0.01,0.03-0.02,0.05-0.03c0,0,0.01,0,0.01-0.01c0.01-0.01,0.03-0.02,0.04-0.02c0,0,0.01-0.01,0.01-0.01
		c0.01-0.01,0.03-0.02,0.04-0.03c0.01,0,0.01,0,0.01-0.01c0.01-0.01,0.02-0.01,0.03-0.02c0.01,0,0.01-0.01,0.02-0.01
		c0.01-0.01,0.03-0.02,0.04-0.03c0.01,0,0.01-0.01,0.02-0.01c0.01-0.01,0.02-0.01,0.03-0.02c0.01-0.01,0.01-0.01,0.02-0.01
		c0.01-0.01,0.02-0.01,0.04-0.02c0.01-0.01,0.02-0.01,0.03-0.02c0.01,0,0.01-0.01,0.02-0.01c0.01-0.01,0.02-0.01,0.03-0.02
		c0.01,0,0.01-0.01,0.02-0.01c0.01-0.01,0.03-0.02,0.05-0.03c0,0,0.01-0.01,0.01-0.01c0.03-0.02,0.06-0.04,0.09-0.06
		c0,0,0.01,0,0.01-0.01c0.04-0.02,0.06-0.04,0.1-0.06c0,0,0,0,0,0c0.03-0.02,0.05-0.03,0.08-0.05L286.23,321.55L286.23,321.55z
		 M302.57,309.02c-1.91,1.78-3.91,3.5-5.94,5.14l1.25,1.56c0.19-0.15,0.37-0.3,0.56-0.45c0,0,0,0,0,0c0.03-0.03,0.06-0.05,0.09-0.08
		c0,0,0,0,0,0c0.03-0.03,0.06-0.05,0.09-0.08c0,0,0,0,0,0c0.03-0.03,0.06-0.05,0.09-0.07c0,0,0,0,0.01,0
		c0.02-0.02,0.04-0.03,0.06-0.05c0,0,0,0,0.01,0c0.01-0.01,0.02-0.01,0.03-0.02c0,0,0.01-0.01,0.01-0.01
		c0.02-0.01,0.03-0.03,0.05-0.04c0,0,0.01-0.01,0.01-0.01c0.01-0.01,0.02-0.01,0.03-0.02c0,0,0.01-0.01,0.01-0.01
		c0.01-0.01,0.03-0.02,0.04-0.03c0.01,0,0.01-0.01,0.02-0.01c0.01-0.01,0.02-0.01,0.02-0.02c0.01,0,0.01-0.01,0.02-0.01
		c0.01-0.01,0.03-0.02,0.04-0.03c0.01,0,0.01-0.01,0.02-0.01c0.01,0,0.02-0.01,0.02-0.02c0.01-0.01,0.01-0.01,0.02-0.02
		c0.01-0.01,0.03-0.02,0.04-0.03c0.01-0.01,0.01-0.01,0.02-0.02c0.01-0.01,0.01-0.01,0.02-0.02c0.01,0,0.01-0.01,0.02-0.01
		c0.01-0.01,0.03-0.02,0.04-0.03c0.01-0.01,0.01-0.01,0.02-0.02c0.01-0.01,0.01-0.01,0.02-0.02c0.01-0.01,0.01-0.01,0.02-0.02
		c0.01-0.01,0.02-0.02,0.03-0.03c0.01-0.01,0.01-0.01,0.02-0.02c0.01-0.01,0.01-0.01,0.02-0.02c0.01-0.01,0.01-0.01,0.02-0.02
		c0.01-0.01,0.02-0.02,0.03-0.03c0.01-0.01,0.01-0.01,0.02-0.02c0.01-0.01,0.01-0.01,0.02-0.02c0.01-0.01,0.02-0.02,0.03-0.03
		c0.01,0,0.02-0.01,0.02-0.02c0.01-0.01,0.02-0.01,0.02-0.02c0.01-0.01,0.01-0.01,0.02-0.02c0.01-0.01,0.02-0.02,0.03-0.03
		c0.01,0,0.01-0.01,0.02-0.02c0.01-0.01,0.02-0.01,0.02-0.02c0.01-0.01,0.01-0.01,0.02-0.02c0.01-0.01,0.02-0.02,0.04-0.03
		c0.01,0,0.01-0.01,0.02-0.02c0.01-0.01,0.02-0.01,0.02-0.02c0.01-0.01,0.01-0.01,0.02-0.01c0.01-0.01,0.02-0.02,0.04-0.03
		c0.01,0,0.01-0.01,0.02-0.02c0.01-0.01,0.02-0.01,0.02-0.02c0.01,0,0.01-0.01,0.02-0.01c0.01-0.01,0.02-0.02,0.04-0.03
		c0.01,0,0.01-0.01,0.02-0.01c0.01-0.01,0.02-0.01,0.03-0.02c0.01,0,0.01-0.01,0.02-0.01c0.01-0.01,0.02-0.02,0.04-0.03
		c0.01,0,0.01-0.01,0.01-0.01c0.01-0.01,0.02-0.02,0.03-0.03c0.01,0,0.01-0.01,0.01-0.01c0.01-0.01,0.03-0.02,0.04-0.03
		c0,0,0.01-0.01,0.01-0.01c0.01-0.01,0.02-0.02,0.03-0.03c0.01,0,0.01-0.01,0.01-0.01c0.01-0.01,0.03-0.02,0.04-0.03
		c0.01,0,0.01-0.01,0.02-0.01c0.01-0.01,0.02-0.02,0.03-0.02c0.01,0,0.01-0.01,0.01-0.01c0.01-0.01,0.03-0.02,0.04-0.03
		c0.01,0,0.01-0.01,0.01-0.01c0.01-0.01,0.02-0.02,0.03-0.03c0,0,0.01-0.01,0.01-0.01c0.01-0.01,0.03-0.02,0.04-0.03
		c0.01,0,0.01-0.01,0.01-0.01c0.01-0.01,0.02-0.02,0.03-0.03c0,0,0.01,0,0.01-0.01c0.01-0.01,0.03-0.02,0.04-0.03
		c0.01,0,0.01-0.01,0.01-0.01c0.01-0.01,0.02-0.02,0.04-0.03c0,0,0,0,0,0c0.01-0.01,0.03-0.02,0.04-0.03c0.01,0,0.01-0.01,0.01-0.01
		c0.01-0.01,0.02-0.02,0.04-0.03c0,0,0,0,0.01-0.01c0.01-0.01,0.03-0.02,0.04-0.03c0.01,0,0.01-0.01,0.01-0.01
		c0.01-0.01,0.03-0.02,0.04-0.04l0,0c0.01-0.01,0.03-0.02,0.04-0.04c0.01,0,0.01,0,0.01-0.01c0.01-0.01,0.03-0.02,0.04-0.04l0,0
		c0.01-0.01,0.03-0.02,0.04-0.03c0.01,0,0.01,0,0.01-0.01c0.01-0.01,0.03-0.02,0.04-0.04c0,0,0,0,0,0c0.01-0.01,0.03-0.02,0.04-0.03
		c0,0,0.01-0.01,0.01-0.01c0.01-0.01,0.03-0.02,0.04-0.04c0,0,0,0,0,0c0.01-0.01,0.03-0.02,0.04-0.04c0,0,0,0,0.01-0.01
		c0.01-0.01,0.03-0.03,0.04-0.04c0,0,0,0,0,0c0.01-0.01,0.03-0.02,0.04-0.03c0,0,0.01,0,0.01-0.01c0.01-0.01,0.03-0.02,0.04-0.04
		c0,0,0,0,0,0c0.01-0.01,0.03-0.02,0.04-0.03c0,0,0.01,0,0.01-0.01c0.01-0.01,0.03-0.03,0.04-0.04l0,0
		c0.01-0.01,0.03-0.02,0.04-0.03c0,0,0,0,0.01-0.01c0.01-0.01,0.03-0.03,0.04-0.04l0,0c0.01-0.01,0.03-0.02,0.04-0.04
		c0,0,0,0,0.01-0.01c0.01-0.01,0.03-0.03,0.04-0.04l0,0c0.01-0.01,0.03-0.02,0.04-0.04l0,0c0.01-0.01,0.03-0.03,0.04-0.04l0,0
		c0.01-0.01,0.03-0.02,0.04-0.04l0,0c0.01-0.01,0.03-0.03,0.04-0.04c0,0,0,0,0,0c0.01-0.01,0.03-0.02,0.04-0.04l0,0
		c0.01-0.01,0.03-0.03,0.04-0.04c0,0,0,0,0.01,0c0.01-0.01,0.03-0.02,0.04-0.04l0,0c0.01-0.01,0.03-0.03,0.04-0.04c0,0,0,0,0,0
		c0.03-0.03,0.06-0.05,0.09-0.08c0,0,0,0,0,0c0.03-0.03,0.06-0.05,0.09-0.08c0,0,0,0,0,0c0.03-0.03,0.06-0.05,0.09-0.08l0,0
		c0.03-0.03,0.06-0.05,0.09-0.08l0,0c0.03-0.03,0.06-0.05,0.09-0.08l0,0c0.03-0.03,0.06-0.05,0.09-0.08l0,0
		c0.03-0.03,0.06-0.05,0.09-0.08l0,0c0.03-0.03,0.06-0.05,0.09-0.08c0,0,0,0,0,0c0.03-0.03,0.06-0.05,0.09-0.08c0,0,0,0,0,0
		c0.03-0.03,0.06-0.05,0.09-0.08l0,0c0.03-0.03,0.06-0.06,0.09-0.08l0,0c0.11-0.1,0.22-0.2,0.32-0.29l0,0
		c0.03-0.03,0.06-0.06,0.09-0.08l0,0c0.03-0.03,0.06-0.06,0.09-0.08c0,0,0,0,0,0c0.03-0.03,0.06-0.06,0.09-0.08c0,0,0,0,0,0
		c0.03-0.03,0.06-0.06,0.09-0.08c0,0,0,0,0,0c0.03-0.03,0.06-0.05,0.09-0.08l0,0c0.03-0.03,0.06-0.05,0.09-0.08l0,0
		c0.03-0.03,0.06-0.05,0.09-0.08l0,0c0.03-0.03,0.06-0.05,0.09-0.08l0,0L302.57,309.02L302.57,309.02z M316.26,293.63
		c-1.54,2.1-3.18,4.18-4.86,6.17l1.52,1.29c1.04-1.23,2.06-2.48,3.05-3.76c0,0,0,0,0,0c0.03-0.03,0.05-0.06,0.07-0.1c0,0,0,0,0,0
		c0.03-0.03,0.05-0.06,0.07-0.09c0,0,0,0,0-0.01c0.02-0.03,0.05-0.06,0.07-0.09c0,0,0.01-0.01,0.01-0.01
		c0.01-0.02,0.03-0.03,0.04-0.05c0,0,0-0.01,0.01-0.01c0.01-0.01,0.01-0.02,0.02-0.03c0,0,0.01-0.01,0.01-0.01
		c0.01-0.02,0.02-0.03,0.03-0.04c0,0,0.01-0.01,0.01-0.01c0.01-0.01,0.01-0.02,0.02-0.02c0-0.01,0.01-0.01,0.01-0.02
		c0.01-0.01,0.02-0.02,0.03-0.03c0.01-0.01,0.01-0.02,0.02-0.02c0-0.01,0.01-0.02,0.02-0.02c0.01-0.01,0.01-0.02,0.02-0.02
		c0.01-0.01,0.01-0.02,0.02-0.03c0.01-0.01,0.01-0.02,0.02-0.03c0-0.01,0.01-0.01,0.01-0.02c0.01-0.01,0.01-0.02,0.02-0.03
		c0.01-0.01,0.01-0.02,0.02-0.02c0.01-0.01,0.02-0.02,0.02-0.03c0-0.01,0.01-0.01,0.01-0.02c0.01-0.01,0.02-0.02,0.03-0.04
		c0-0.01,0.01-0.01,0.01-0.01c0.01-0.01,0.02-0.02,0.03-0.04c0-0.01,0.01-0.01,0.01-0.02c0.01-0.01,0.02-0.03,0.03-0.04
		c0,0,0.01-0.01,0.01-0.01c0.01-0.01,0.02-0.02,0.03-0.04c0-0.01,0.01-0.01,0.01-0.01c0.01-0.01,0.02-0.03,0.03-0.04c0,0,0,0,0,0
		c0.01-0.01,0.02-0.03,0.03-0.04c0,0,0-0.01,0.01-0.01c0.01-0.02,0.02-0.03,0.03-0.05c0,0,0,0,0,0c0.01-0.01,0.02-0.03,0.03-0.04
		c0,0,0,0,0-0.01c0.02-0.03,0.05-0.06,0.07-0.1c0,0,0,0,0,0c0.31-0.42,0.62-0.83,0.93-1.25L316.26,293.63L316.26,293.63z
		 M326.78,275.94c-1.11,2.36-2.33,4.7-3.61,6.97l1.74,0.98c0.29-0.52,0.57-1.03,0.86-1.55c0,0,0-0.01,0.01-0.01
		c0.01-0.02,0.02-0.04,0.03-0.06c0,0,0,0,0,0c0.01-0.01,0.01-0.02,0.02-0.03c0,0,0-0.01,0.01-0.01c0.01-0.02,0.02-0.04,0.03-0.06
		c0,0,0-0.01,0-0.01c0-0.01,0.01-0.02,0.02-0.03c0-0.01,0.01-0.01,0.01-0.02c0.01-0.02,0.02-0.03,0.02-0.04
		c0-0.01,0.01-0.01,0.01-0.02c0-0.01,0.01-0.02,0.01-0.03c0-0.01,0.01-0.02,0.01-0.02c0-0.01,0.01-0.02,0.02-0.03
		c0.01-0.01,0.01-0.02,0.02-0.03c0-0.01,0.01-0.01,0.01-0.02c0-0.01,0.01-0.02,0.01-0.03c0-0.01,0.01-0.02,0.01-0.03
		c0.01-0.01,0.01-0.02,0.02-0.04c0-0.01,0.01-0.01,0.01-0.02c0.01-0.01,0.01-0.02,0.02-0.03c0-0.01,0-0.01,0.01-0.01
		c0.01-0.01,0.02-0.03,0.02-0.04c0-0.01,0.01-0.01,0.01-0.02c0.01-0.01,0.01-0.02,0.02-0.03c0-0.01,0-0.01,0.01-0.01
		c0.01-0.01,0.02-0.03,0.02-0.04c0-0.01,0.01-0.01,0.01-0.02c0.01-0.01,0.01-0.02,0.02-0.04c0,0,0-0.01,0.01-0.01
		c0.01-0.02,0.02-0.03,0.02-0.05c0,0,0.01-0.01,0.01-0.01c0.01-0.01,0.01-0.03,0.02-0.04c0,0,0,0,0-0.01
		c0.01-0.02,0.02-0.03,0.03-0.05c0,0,0.01-0.01,0.01-0.01c0.01-0.01,0.02-0.03,0.02-0.04c0,0,0,0,0-0.01
		c0.01-0.02,0.02-0.03,0.03-0.05c0,0,0-0.01,0.01-0.01c0.01-0.02,0.02-0.03,0.02-0.05c0,0,0,0,0,0c0.01-0.02,0.02-0.03,0.03-0.05
		c0,0,0-0.01,0-0.01c0.02-0.03,0.04-0.07,0.05-0.1c0,0,0-0.01,0-0.01c0.02-0.03,0.04-0.07,0.05-0.1c0,0,0,0,0-0.01
		c0.02-0.03,0.04-0.07,0.05-0.1c0,0,0,0,0-0.01c0.02-0.03,0.04-0.07,0.05-0.1c0,0,0,0,0-0.01c0.02-0.04,0.04-0.07,0.05-0.1
		c0,0,0,0,0-0.01c0.02-0.04,0.04-0.07,0.05-0.1c0,0,0,0,0-0.01c0.02-0.03,0.04-0.07,0.05-0.1c0,0,0,0,0-0.01
		c0.02-0.03,0.04-0.07,0.05-0.1c0,0,0,0,0-0.01c0.02-0.03,0.04-0.07,0.05-0.1c0,0,0,0,0-0.01c0.02-0.03,0.04-0.07,0.05-0.1
		c0,0,0,0,0-0.01c0.02-0.04,0.04-0.07,0.05-0.11c0,0,0,0,0-0.01c0.02-0.03,0.04-0.07,0.05-0.1c0,0,0,0,0-0.01
		c0.02-0.03,0.04-0.07,0.05-0.1c0,0,0,0,0-0.01c0.02-0.03,0.03-0.07,0.05-0.1c0,0,0-0.01,0.01-0.01c0.02-0.03,0.03-0.07,0.05-0.1
		c0,0,0-0.01,0.01-0.01c0.01-0.02,0.02-0.03,0.02-0.05l0,0c0.01-0.02,0.02-0.03,0.03-0.05c0,0,0-0.01,0.01-0.01
		c0.01-0.02,0.02-0.03,0.02-0.05l0,0c0.01-0.02,0.02-0.03,0.02-0.05c0-0.01,0-0.01,0.01-0.01c0.01-0.01,0.01-0.03,0.02-0.04
		c0,0,0,0,0-0.01c0.01-0.02,0.02-0.03,0.02-0.05c0-0.01,0-0.01,0.01-0.02c0.01-0.01,0.01-0.03,0.02-0.04c0,0,0,0,0-0.01
		c0.01-0.02,0.02-0.03,0.02-0.05c0-0.01,0.01-0.01,0.01-0.02c0.01-0.01,0.01-0.02,0.02-0.04c0-0.01,0-0.01,0.01-0.02
		c0.01-0.01,0.01-0.03,0.02-0.04c0-0.01,0.01-0.01,0.01-0.02c0.01-0.01,0.01-0.02,0.02-0.04c0-0.01,0.01-0.01,0.01-0.02
		c0.01-0.01,0.01-0.02,0.02-0.04c0-0.01,0.01-0.01,0.01-0.02c0.01-0.01,0.01-0.02,0.02-0.03c0-0.01,0.01-0.02,0.01-0.02
		c0.01-0.01,0.01-0.02,0.02-0.03c0-0.01,0.01-0.02,0.01-0.02c0-0.01,0.01-0.02,0.01-0.03c0.01-0.01,0.01-0.02,0.02-0.04
		c0-0.01,0.01-0.02,0.01-0.02c0-0.01,0.01-0.02,0.01-0.03c0-0.01,0.01-0.01,0.01-0.02c0.01-0.01,0.01-0.03,0.02-0.04
		c0-0.01,0.01-0.02,0.01-0.02c0-0.01,0.01-0.02,0.01-0.03c0-0.01,0.01-0.01,0.01-0.02c0.01-0.02,0.02-0.03,0.02-0.05
		c0,0,0.01-0.01,0.01-0.02c0.01-0.01,0.01-0.02,0.01-0.03c0-0.01,0.01-0.01,0.01-0.02c0.01-0.02,0.02-0.03,0.03-0.05
		c0,0,0-0.01,0.01-0.01c0.01-0.01,0.01-0.02,0.02-0.03c0,0,0-0.01,0.01-0.01c0.01-0.02,0.02-0.04,0.03-0.06c0,0,0-0.01,0-0.01
		c0.01-0.01,0.01-0.02,0.02-0.03c0,0,0-0.01,0-0.01c0.01-0.02,0.02-0.04,0.03-0.07c0,0,0,0,0,0c0.01-0.01,0.01-0.02,0.02-0.04
		c0,0,0,0,0,0c0.02-0.04,0.04-0.07,0.05-0.11c0,0,0,0,0,0c0.18-0.37,0.36-0.74,0.53-1.11L326.78,275.94L326.78,275.94z
		 M333.73,256.57c-0.64,2.53-1.38,5.06-2.21,7.53l1.9,0.63c0.84-2.52,1.59-5.08,2.25-7.68L333.73,256.57L333.73,256.57z
		 M336.87,236.22c-0.15,2.61-0.4,5.24-0.73,7.82l1.98,0.26c0.02-0.18,0.05-0.36,0.07-0.55c0,0,0,0,0,0c0-0.03,0.01-0.05,0.01-0.08
		c0,0,0-0.01,0-0.01c0-0.01,0-0.02,0-0.04c0,0,0,0,0,0c0-0.01,0-0.02,0-0.04c0,0,0-0.01,0-0.01c0-0.01,0-0.02,0-0.03
		c0,0,0-0.01,0-0.01c0-0.01,0-0.02,0-0.03c0-0.01,0-0.01,0-0.02c0-0.01,0-0.01,0-0.02c0-0.01,0-0.01,0-0.02c0-0.01,0-0.01,0-0.02
		c0-0.01,0-0.02,0-0.04c0,0,0-0.01,0-0.01c0-0.01,0-0.01,0-0.02c0-0.01,0-0.01,0-0.01c0-0.01,0-0.02,0-0.02l0-0.01
		c0-0.02,0-0.04,0.01-0.05c0,0,0,0,0,0c0-0.01,0-0.02,0-0.03l0,0c0.2-1.7,0.37-3.41,0.5-5.13l0,0c0-0.03,0-0.06,0.01-0.09
		c0,0,0,0,0-0.01c0-0.01,0-0.02,0-0.02c0-0.01,0-0.01,0-0.02c0-0.01,0-0.01,0-0.02c0-0.01,0-0.02,0-0.03c0-0.01,0-0.01,0-0.02
		c0-0.01,0-0.02,0-0.02c0-0.01,0-0.01,0-0.01c0-0.01,0-0.02,0-0.04c0,0,0,0,0,0c0-0.01,0-0.02,0-0.04c0,0,0-0.01,0-0.01
		c0-0.01,0-0.02,0-0.03c0,0,0,0,0,0c0-0.01,0-0.03,0-0.04c0,0,0,0,0,0c0-0.01,0-0.03,0-0.04c0,0,0,0,0,0
		c0.03-0.43,0.06-0.86,0.08-1.3L336.87,236.22L336.87,236.22z M338.1,215.38l-1.98,0.26c0.34,2.58,0.59,5.21,0.75,7.82l2-0.12
		c-0.04-0.63-0.08-1.26-0.13-1.89c0,0,0,0,0,0c0-0.01,0-0.03,0-0.04c0,0,0,0,0,0c0-0.03,0-0.06-0.01-0.08c0,0,0,0,0,0
		c0-0.01,0-0.03,0-0.04c0,0,0,0,0,0c0-0.01,0-0.03,0-0.04c0,0,0,0,0,0c0-0.01,0-0.02,0-0.04c0,0,0-0.01,0-0.01
		c0-0.03,0-0.05-0.01-0.08c0,0,0-0.01,0-0.01c0-0.01,0-0.02,0-0.03c0,0,0,0,0-0.01c0-0.01,0-0.02,0-0.04c0,0,0-0.01,0-0.01
		c0-0.01,0-0.02,0-0.03c0,0,0-0.01,0-0.01c0-0.01,0-0.02,0-0.04c0,0,0,0,0,0c0-0.01,0-0.02,0-0.04c0,0,0-0.01,0-0.01
		c0-0.01,0-0.02,0-0.03c0,0,0-0.01,0-0.01c0-0.01,0-0.02,0-0.04c0,0,0-0.01,0-0.01c0-0.01,0-0.02,0-0.03c0,0,0-0.01,0-0.01
		c0-0.01,0-0.02,0-0.03c0,0,0,0,0,0c0-0.01,0-0.03,0-0.04c0,0,0-0.01,0-0.01c0-0.01,0-0.02,0-0.03c0,0,0-0.01,0-0.01
		c0-0.01,0-0.02,0-0.04c0,0,0-0.01,0-0.01c0-0.01,0-0.02,0-0.03c0,0,0-0.01,0-0.01c0-0.01,0-0.02,0-0.04c0,0,0,0,0,0
		c0-0.01,0-0.02,0-0.04c0,0,0-0.01,0-0.01c0-0.01,0-0.02,0-0.03c0,0,0-0.01,0-0.01c0-0.01,0-0.02,0-0.04c0,0,0,0,0-0.01
		c0-0.01,0-0.02,0-0.03c0,0,0-0.01,0-0.01c0-0.01,0-0.02,0-0.03c0,0,0,0,0-0.01c0-0.01,0-0.02,0-0.04c0,0,0-0.01,0-0.01
		c0-0.01,0-0.02,0-0.03c0,0,0-0.01,0-0.01c0-0.01,0-0.02,0-0.04c0,0,0-0.01,0-0.01c0-0.01,0-0.02,0-0.03c0,0,0-0.01,0-0.01
		c0-0.01,0-0.02,0-0.03c0,0,0-0.01,0-0.01c0-0.01,0-0.02,0-0.04c0,0,0-0.01,0-0.01c0-0.01,0-0.02,0-0.03c0,0,0-0.01,0-0.01
		c0-0.01,0-0.02,0-0.04c0,0,0,0,0,0c0-0.01,0-0.02,0-0.03c0,0,0-0.01,0-0.01c0-0.01,0-0.02,0-0.04c0,0,0,0,0,0c0-0.01,0-0.03,0-0.04
		c0,0,0-0.01,0-0.01c0-0.01,0-0.02,0-0.03c0,0,0-0.01,0-0.01c0-0.01,0-0.03,0-0.04c0,0,0,0,0,0c0-0.01,0-0.02,0-0.04
		c0,0,0-0.01,0-0.01c0-0.01,0-0.02,0-0.04c0,0,0,0,0,0c0-0.01,0-0.03,0-0.04c0,0,0,0,0,0c0-0.01,0-0.02,0-0.04c0,0,0,0,0-0.01
		c0-0.03-0.01-0.05-0.01-0.08c0,0,0,0,0,0c0-0.03-0.01-0.06-0.01-0.08c0,0,0,0,0,0c0-0.01,0-0.03,0-0.04c0,0,0,0,0,0
		c0-0.03-0.01-0.06-0.01-0.08c0,0,0,0,0,0c0-0.04-0.01-0.09-0.01-0.13c0,0,0,0,0,0c0-0.03-0.01-0.06-0.01-0.09c0,0,0,0,0,0
		c-0.01-0.12-0.02-0.23-0.03-0.35c0,0,0,0,0,0c-0.1-0.98-0.21-1.96-0.34-2.93c0,0,0,0,0,0c0-0.03-0.01-0.06-0.01-0.08c0,0,0,0,0,0
		c0-0.01,0-0.03-0.01-0.04c0,0,0,0,0,0c0-0.03-0.01-0.05-0.01-0.08c0,0,0,0,0-0.01c0-0.01,0-0.02,0-0.04c0,0,0,0,0,0
		c0-0.01,0-0.02-0.01-0.04c0,0,0-0.01,0-0.01c0-0.01,0-0.02,0-0.03C338.1,215.39,338.1,215.39,338.1,215.38
		C338.1,215.38,338.1,215.38,338.1,215.38L338.1,215.38z M333.37,194.95l-1.9,0.64c0.83,2.47,1.57,5.01,2.22,7.53l1.94-0.49
		c-0.57-2.23-1.21-4.43-1.91-6.6l0-0.01c0-0.01-0.01-0.02-0.01-0.03l0,0c-0.01-0.02-0.01-0.04-0.02-0.05l0-0.01
		c0-0.01,0-0.01-0.01-0.02c0-0.01,0-0.01,0-0.02c0-0.01,0-0.01-0.01-0.02c0-0.01,0-0.01-0.01-0.02c0-0.01-0.01-0.02-0.01-0.02
		c0-0.01-0.01-0.02-0.01-0.02c0,0,0-0.01,0-0.01c0-0.01-0.01-0.02-0.01-0.02c0,0,0-0.01,0-0.01c0-0.01-0.01-0.02-0.01-0.04
		c0,0,0,0,0,0c0-0.01-0.01-0.02-0.01-0.04c0,0,0,0,0-0.01c0-0.01-0.01-0.02-0.01-0.03c0,0,0,0,0,0c-0.01-0.03-0.02-0.05-0.03-0.08
		c0,0,0,0,0,0C333.51,195.35,333.44,195.15,333.37,194.95L333.37,194.95z M324.84,175.8l-1.74,0.99c1.29,2.27,2.5,4.61,3.62,6.97
		l1.81-0.86c-0.93-1.96-1.92-3.89-2.96-5.79l0,0c-0.06-0.11-0.12-0.22-0.18-0.33l0,0c-0.02-0.04-0.04-0.07-0.06-0.11l0,0
		c-0.02-0.04-0.04-0.07-0.06-0.11l0,0c-0.02-0.04-0.04-0.07-0.06-0.11l0,0c-0.04-0.07-0.08-0.15-0.12-0.22l0,0
		c-0.02-0.04-0.04-0.07-0.06-0.11l0,0c-0.02-0.04-0.04-0.07-0.06-0.11l0,0c-0.02-0.04-0.04-0.07-0.06-0.11c0,0,0,0,0,0
		C324.88,175.87,324.86,175.83,324.84,175.8L324.84,175.8L324.84,175.8z M312.82,158.62l-1.52,1.3c1.69,1.99,3.33,4.06,4.87,6.16
		l1.61-1.18c-0.34-0.46-0.68-0.92-1.03-1.38c0,0,0,0,0,0c-0.02-0.03-0.05-0.06-0.07-0.1c0,0,0,0,0,0c-0.03-0.03-0.05-0.06-0.07-0.09
		c0,0,0,0,0-0.01c-0.03-0.03-0.05-0.06-0.07-0.09c0,0,0-0.01-0.01-0.01c-0.02-0.03-0.05-0.06-0.07-0.09c0,0-0.01-0.01-0.01-0.01
		c-0.02-0.03-0.05-0.06-0.07-0.09c0,0-0.01-0.01-0.01-0.01c-0.02-0.03-0.05-0.06-0.07-0.09c0,0-0.01-0.01-0.01-0.01
		c-0.02-0.03-0.05-0.06-0.07-0.09c0,0-0.01-0.01-0.01-0.01c-0.01-0.02-0.03-0.03-0.04-0.05c0,0,0-0.01-0.01-0.01
		c-0.01-0.01-0.01-0.02-0.02-0.03c0,0-0.01-0.01-0.01-0.01c-0.01-0.02-0.02-0.03-0.04-0.05c0,0-0.01-0.01-0.01-0.01
		c-0.01-0.01-0.01-0.02-0.02-0.03c0,0-0.01-0.01-0.01-0.01c-0.01-0.01-0.02-0.03-0.03-0.04c0,0-0.01-0.01-0.01-0.01
		c-0.01-0.01-0.01-0.02-0.02-0.02c0-0.01-0.01-0.01-0.01-0.02c-0.01-0.02-0.02-0.03-0.03-0.04c0,0-0.01-0.01-0.01-0.01
		c-0.01-0.01-0.01-0.02-0.02-0.02c0-0.01-0.01-0.01-0.01-0.02c-0.01-0.01-0.02-0.03-0.03-0.04c0-0.01-0.01-0.01-0.01-0.01
		c-0.01-0.01-0.01-0.02-0.02-0.03c0,0-0.01-0.01-0.01-0.01c-0.01-0.01-0.02-0.03-0.03-0.04c0-0.01-0.01-0.01-0.01-0.02
		c0-0.01-0.01-0.02-0.02-0.02c0-0.01-0.01-0.01-0.01-0.02c-0.01-0.01-0.02-0.03-0.03-0.04c0-0.01-0.01-0.01-0.01-0.02
		c-0.01-0.01-0.01-0.02-0.02-0.02c0-0.01-0.01-0.01-0.01-0.02c-0.01-0.01-0.02-0.03-0.03-0.04c0-0.01-0.01-0.01-0.01-0.02
		c0-0.01-0.01-0.02-0.02-0.02c-0.01-0.01-0.01-0.01-0.02-0.02c-0.01-0.01-0.02-0.03-0.03-0.04c0-0.01-0.01-0.01-0.01-0.02
		c-0.01-0.01-0.01-0.02-0.02-0.02c0,0-0.01-0.01-0.01-0.01c-0.01-0.02-0.02-0.03-0.03-0.04c0-0.01-0.01-0.01-0.01-0.02
		c-0.01-0.01-0.01-0.02-0.02-0.03c0,0-0.01-0.01-0.01-0.01c-0.01-0.02-0.02-0.03-0.04-0.05c0,0-0.01-0.01-0.01-0.01
		c-0.01-0.01-0.01-0.02-0.02-0.03c0,0-0.01-0.01-0.01-0.01c-0.01-0.02-0.03-0.03-0.04-0.05c0,0-0.01-0.01-0.01-0.01
		c-0.01-0.01-0.02-0.02-0.02-0.03c0,0,0,0,0-0.01c-0.01-0.02-0.03-0.04-0.04-0.05c0,0-0.01-0.01-0.01-0.01
		c-0.01-0.01-0.01-0.02-0.02-0.03c0,0,0,0-0.01-0.01c-0.01-0.02-0.03-0.03-0.04-0.05c0,0-0.01-0.01-0.01-0.01
		c-0.01-0.01-0.01-0.02-0.02-0.03c0,0,0,0,0-0.01c-0.01-0.02-0.03-0.04-0.04-0.05c0,0-0.01-0.01-0.01-0.01
		c-0.02-0.03-0.05-0.06-0.07-0.09c0,0-0.01-0.01-0.01-0.01c-0.02-0.03-0.05-0.06-0.07-0.09c0,0-0.01-0.01-0.01-0.01
		c-0.02-0.03-0.05-0.06-0.07-0.09c0,0-0.01-0.01-0.01-0.01c-0.02-0.03-0.05-0.06-0.07-0.09c0,0-0.01-0.01-0.01-0.01
		c-0.02-0.03-0.05-0.06-0.07-0.09c0,0,0-0.01-0.01-0.01c-0.02-0.03-0.05-0.06-0.07-0.09c0,0,0-0.01-0.01-0.01
		c-0.02-0.03-0.05-0.06-0.07-0.09c0,0,0,0-0.01-0.01c-0.02-0.03-0.05-0.06-0.07-0.09c0,0,0,0,0,0c-0.03-0.03-0.05-0.06-0.08-0.09
		c0,0,0,0,0,0C313.88,159.88,313.35,159.24,312.82,158.62L312.82,158.62z M297.77,144.01l-1.25,1.56c2.03,1.63,4.04,3.36,5.95,5.13
		l1.36-1.47c-0.07-0.06-0.14-0.13-0.21-0.19c0,0,0,0,0,0c-0.03-0.03-0.06-0.05-0.09-0.08c0,0,0,0,0,0
		c-0.03-0.03-0.06-0.05-0.09-0.08c0,0,0,0-0.01-0.01c-0.03-0.03-0.05-0.05-0.08-0.08c0,0-0.01,0-0.01-0.01
		c-0.03-0.02-0.06-0.05-0.08-0.08c0,0-0.01-0.01-0.01-0.01c-0.02-0.01-0.03-0.03-0.04-0.04c0,0-0.01-0.01-0.01-0.01
		c-0.01-0.01-0.02-0.02-0.02-0.02c0,0-0.01-0.01-0.01-0.01c-0.01-0.01-0.03-0.02-0.04-0.04c-0.01,0-0.01-0.01-0.02-0.01
		c-0.01-0.01-0.02-0.01-0.02-0.02c-0.01-0.01-0.01-0.01-0.02-0.02c-0.01-0.01-0.02-0.02-0.03-0.03c-0.01-0.01-0.02-0.01-0.02-0.02
		c-0.01,0-0.01-0.01-0.02-0.02c-0.01-0.01-0.02-0.01-0.02-0.02c-0.01-0.01-0.02-0.01-0.03-0.02c-0.01-0.01-0.02-0.01-0.02-0.02
		c-0.01,0-0.01-0.01-0.02-0.02c-0.01-0.01-0.02-0.02-0.03-0.02c-0.01,0-0.02-0.01-0.02-0.02c-0.01-0.01-0.02-0.02-0.03-0.03
		c-0.01,0-0.01-0.01-0.02-0.01c-0.01-0.01-0.02-0.02-0.03-0.03c-0.01,0-0.01-0.01-0.01-0.01c-0.01-0.01-0.02-0.02-0.03-0.03
		c-0.01,0-0.01-0.01-0.02-0.01c-0.01-0.01-0.02-0.02-0.03-0.03c0,0-0.01-0.01-0.01-0.01c-0.01-0.01-0.02-0.02-0.03-0.03
		c-0.01,0-0.01-0.01-0.01-0.01c-0.01-0.01-0.03-0.02-0.04-0.04c0,0,0,0-0.01-0.01c-0.01-0.01-0.02-0.02-0.03-0.03
		c0,0-0.01-0.01-0.01-0.01c-0.01-0.01-0.03-0.02-0.04-0.04c0,0,0,0-0.01-0.01c-0.01-0.01-0.02-0.02-0.04-0.03
		c0,0-0.01-0.01-0.01-0.01c-0.01-0.01-0.03-0.02-0.04-0.04c0,0,0,0-0.01-0.01c-0.01-0.01-0.02-0.02-0.04-0.03
		c0,0-0.01-0.01-0.01-0.01c-0.01-0.01-0.03-0.02-0.04-0.04c0,0,0,0-0.01,0c-0.01-0.01-0.03-0.02-0.04-0.04c0,0,0,0-0.01-0.01
		c-0.01-0.01-0.03-0.03-0.04-0.04l0,0c-0.01-0.01-0.03-0.03-0.04-0.04l0,0c-0.01-0.01-0.03-0.03-0.04-0.04l0,0
		c-0.01-0.01-0.03-0.03-0.04-0.04l0,0c-1.14-1.01-2.29-2-3.47-2.96c0,0,0,0,0,0c-0.02-0.01-0.03-0.02-0.04-0.04l0,0
		c-0.02-0.01-0.03-0.02-0.05-0.04c0,0,0,0,0,0c-0.01-0.01-0.03-0.02-0.04-0.04c0,0,0,0,0,0c-0.01-0.01-0.03-0.02-0.04-0.04
		c0,0-0.01,0-0.01-0.01c-0.01-0.01-0.03-0.02-0.04-0.03c0,0,0,0-0.01,0c-0.01-0.01-0.03-0.02-0.04-0.03c0,0-0.01-0.01-0.01-0.01
		c-0.01-0.01-0.02-0.02-0.04-0.03c0,0,0,0-0.01-0.01c-0.01-0.01-0.03-0.02-0.04-0.03c-0.01,0-0.01-0.01-0.02-0.01
		c-0.01-0.01-0.02-0.02-0.03-0.02c-0.01,0-0.02-0.01-0.02-0.02c-0.01-0.01-0.02-0.02-0.03-0.02c-0.01,0-0.01-0.01-0.02-0.01
		c-0.01-0.01-0.02-0.01-0.03-0.02c-0.01-0.01-0.02-0.01-0.03-0.02c-0.01-0.01-0.02-0.01-0.02-0.02c-0.01,0-0.02-0.01-0.02-0.02
		c-0.01-0.01-0.01-0.01-0.02-0.02c-0.01-0.01-0.02-0.02-0.04-0.03c0,0-0.01-0.01-0.02-0.01c-0.01-0.01-0.02-0.01-0.03-0.02
		c0,0-0.01-0.01-0.01-0.01c-0.02-0.01-0.04-0.03-0.05-0.04c0,0,0,0-0.01,0C297.81,144.05,297.79,144.03,297.77,144.01L297.77,144.01
		z M280.23,132.52l-0.93,1.77c2.31,1.21,4.6,2.53,6.81,3.91l1.06-1.7c-0.53-0.33-1.06-0.66-1.6-0.98c0,0,0,0,0,0
		c-0.03-0.02-0.07-0.04-0.1-0.06c0,0,0,0-0.01,0c-0.03-0.02-0.07-0.04-0.1-0.06c0,0,0,0-0.01,0c-0.02-0.01-0.03-0.02-0.05-0.03
		c0,0,0,0,0,0c-0.02-0.01-0.03-0.02-0.05-0.03c0,0-0.01,0-0.01,0c-0.02-0.01-0.03-0.02-0.05-0.03c0,0,0,0,0,0
		c-0.01-0.01-0.03-0.02-0.04-0.03c0,0-0.01,0-0.01-0.01c-0.02-0.01-0.03-0.02-0.05-0.03c0,0,0,0-0.01,0
		c-0.01-0.01-0.03-0.02-0.04-0.02c0,0-0.01-0.01-0.01-0.01c-0.02-0.01-0.03-0.02-0.05-0.03c0,0-0.01,0-0.01-0.01
		c-0.01-0.01-0.03-0.02-0.04-0.02c0,0-0.01-0.01-0.01-0.01c-0.02-0.01-0.03-0.02-0.05-0.03c-0.01,0-0.01,0-0.01-0.01
		c-0.01-0.01-0.02-0.01-0.03-0.02c0,0-0.01-0.01-0.02-0.01c-0.01-0.01-0.03-0.02-0.04-0.03c-0.01,0-0.01-0.01-0.02-0.01
		c-0.01-0.01-0.02-0.01-0.03-0.02c-0.01,0-0.01-0.01-0.02-0.01c-0.01-0.01-0.03-0.02-0.04-0.03c-0.01,0-0.01-0.01-0.02-0.01
		c-0.01-0.01-0.02-0.01-0.03-0.02c-0.01-0.01-0.01-0.01-0.02-0.01c-0.01-0.01-0.03-0.02-0.04-0.02c-0.01,0-0.01-0.01-0.02-0.01
		c-0.01-0.01-0.02-0.01-0.03-0.02c-0.01-0.01-0.01-0.01-0.02-0.01c-0.01-0.01-0.03-0.02-0.04-0.02c-0.01,0-0.01-0.01-0.02-0.01
		c-0.01-0.01-0.02-0.01-0.03-0.02c-0.01-0.01-0.01-0.01-0.02-0.01c-0.01-0.01-0.03-0.02-0.04-0.02c-0.01-0.01-0.01-0.01-0.02-0.01
		c-0.01,0-0.02-0.01-0.02-0.01c-0.01-0.01-0.01-0.01-0.02-0.01c-0.01-0.01-0.03-0.01-0.04-0.02c-0.01-0.01-0.02-0.01-0.02-0.01
		c-0.01,0-0.01-0.01-0.02-0.01c-0.01-0.01-0.02-0.01-0.03-0.02c-0.01-0.01-0.02-0.01-0.04-0.02c-0.01-0.01-0.02-0.01-0.03-0.01
		c-0.01,0-0.01-0.01-0.02-0.01c-0.01-0.01-0.02-0.01-0.03-0.02c-0.01-0.01-0.02-0.01-0.03-0.02c-0.01-0.01-0.02-0.01-0.03-0.02
		c-0.01,0-0.01-0.01-0.02-0.01c-0.03-0.02-0.06-0.04-0.09-0.05c-0.01,0-0.01-0.01-0.02-0.01c-0.02-0.01-0.04-0.02-0.05-0.03
		c0,0-0.01,0-0.01-0.01c-0.01-0.01-0.02-0.01-0.03-0.02c0,0-0.01-0.01-0.01-0.01c-0.03-0.02-0.06-0.04-0.09-0.05
		c0,0-0.01,0-0.01-0.01c-0.03-0.02-0.07-0.04-0.1-0.06c0,0-0.01,0-0.01-0.01c-0.03-0.02-0.07-0.04-0.1-0.06c0,0-0.01,0-0.01-0.01
		c-0.03-0.02-0.07-0.04-0.1-0.06c0,0,0,0-0.01,0c-0.04-0.02-0.06-0.04-0.1-0.06c0,0-0.01,0-0.01,0c-0.03-0.02-0.07-0.04-0.1-0.06
		c0,0,0,0,0,0c-0.04-0.02-0.07-0.04-0.1-0.06c0,0,0,0,0,0c-0.07-0.04-0.14-0.08-0.21-0.12c0,0,0,0,0,0
		c-0.04-0.02-0.07-0.04-0.11-0.06c0,0,0,0,0,0C281.87,133.4,281.05,132.95,280.23,132.52L280.23,132.52z M260.82,124.57l-0.58,1.91
		c2.5,0.75,5,1.61,7.43,2.54l0.72-1.87c-1.37-0.53-2.76-1.03-4.16-1.5c0,0-0.01,0-0.01,0c-0.01,0-0.02-0.01-0.02-0.01
		c0,0-0.01,0-0.01,0c-0.02-0.01-0.03-0.01-0.05-0.02c0,0,0,0-0.01,0c-0.01,0-0.01,0-0.02-0.01c-0.01,0-0.01,0-0.01,0
		c-0.01,0-0.01,0-0.02-0.01c0,0-0.01,0-0.01,0c-0.01,0-0.03-0.01-0.04-0.01c0,0-0.01,0-0.01,0c-0.01,0-0.01,0-0.02-0.01
		c-0.01,0-0.01,0-0.02-0.01c-0.01,0-0.01,0-0.02-0.01c-0.01,0-0.02-0.01-0.03-0.01c-0.01,0-0.01,0-0.02-0.01
		c-0.01,0-0.02-0.01-0.03-0.01c0,0-0.01,0-0.01,0c-0.01,0-0.01,0-0.02-0.01c-0.01,0-0.01,0-0.02-0.01c-0.01,0-0.02-0.01-0.03-0.01
		c0,0,0,0-0.01,0c-0.01,0-0.02-0.01-0.03-0.01c0,0-0.01,0-0.01,0c-0.01,0-0.02-0.01-0.03-0.01c0,0,0,0-0.01,0
		c-0.01,0-0.02-0.01-0.04-0.01c0,0,0,0,0,0c-0.01,0-0.02-0.01-0.03-0.01c0,0-0.01,0-0.01,0c-0.01,0-0.02-0.01-0.03-0.01
		c0,0,0,0-0.01,0c-0.01,0-0.03-0.01-0.04-0.01c0,0,0,0,0,0c-0.01,0-0.02-0.01-0.04-0.01c0,0-0.01,0-0.01,0
		c-0.03-0.01-0.05-0.02-0.08-0.03l0,0c-0.01,0-0.02-0.01-0.04-0.01c0,0,0,0,0,0C262.55,125.1,261.69,124.83,260.82,124.57
		L260.82,124.57z M240.26,120.48l-0.2,1.99c2.6,0.26,5.21,0.62,7.78,1.07l0.35-1.97c-0.01,0-0.03-0.01-0.05-0.01l0,0
		C245.54,121.11,242.92,120.75,240.26,120.48L240.26,120.48z"/>
</g>
</svg>
